<?xml version="1.0" encoding="iso-8859-1"?>
<!-- Generator: Adobe Illustrator 19.0.0, SVG Export Plug-In . SVG Version: 6.00 Build 0)  -->
<svg version="1.1" id="Layer_1" xmlns="http://www.w3.org/2000/svg" xmlns:xlink="http://www.w3.org/1999/xlink" x="0px" y="0px"
	 viewBox="0 0 496 496" style="enable-background:new 0 0 496 496;" xml:space="preserve">
<g>
	<g>
		<g>
			<path d="M496,48V0h-48v16H48V0H0v48h48V32h115.504C79.616,64.936,19.432,145.344,16.2,240H0v48h48v-48H32.2
				c4.192-114.344,97.656-206.24,212.616-207.92l-93.504,85.008l24.032,128.144C137.344,269.376,112,311.736,112,360
				c0,74.992,61.008,136,136,136s136-61.008,136-136c0-48.264-25.344-90.624-63.344-114.768l24.032-128.144L251.184,32.08
				C366.144,33.76,459.608,125.656,463.8,240H448v48h48v-48h-16.2c-3.232-94.656-63.416-175.064-147.304-208H448v16H496z M464,16h16
				v16h-16V16z M32,32H16V16h16V32z M32,272H16v-16h16V272z M304,466.056c-5.112,2.712-10.48,4.984-16,6.944v-81h-16v85.584
				c-7.76,1.576-15.784,2.416-24,2.416s-16.24-0.84-24-2.416V392h-16v81c-5.52-1.96-10.888-4.232-16-6.944V400
				c0-17.648,14.352-32,32-32h48c17.648,0,32,14.352,32,32V466.056z M216,312c0-17.648,14.352-32,32-32s32,14.352,32,32
				s-14.352,32-32,32S216,329.648,216,312z M368,360c0,39.144-18.92,73.856-48,95.776V400c0-25.696-20.312-46.68-45.712-47.888
				C287.344,343.528,296,328.768,296,312c0-26.472-21.528-48-48-48s-48,21.528-48,48c0,16.768,8.656,31.528,21.712,40.112
				C196.312,353.32,176,374.304,176,400v55.776c-29.08-21.92-48-56.632-48-95.776c0-66.168,53.832-120,120-120S368,293.832,368,360z
				 M256,58.088l71.312,64.832l-21.408,114.208C288.304,228.8,268.728,224,248,224c-20.728,0-40.304,4.8-57.904,13.128
				L168.688,122.92L240,58.088v79.048c-13.768,3.576-24,15.992-24,30.864c0,17.648,14.352,32,32,32s32-14.352,32-32
				c0-14.872-10.232-27.288-24-30.864V58.088z M264,168c0,8.824-7.176,16-16,16c-8.824,0-16-7.176-16-16c0-8.824,7.176-16,16-16
				C256.824,152,264,159.176,264,168z M464,256h16v16h-16V256z"/>
			<rect x="152" y="344" width="16" height="16"/>
			<rect x="328" y="344" width="16" height="16"/>
		</g>
	</g>
</g>
<g>
</g>
<g>
</g>
<g>
</g>
<g>
</g>
<g>
</g>
<g>
</g>
<g>
</g>
<g>
</g>
<g>
</g>
<g>
</g>
<g>
</g>
<g>
</g>
<g>
</g>
<g>
</g>
<g>
</g>
</svg>
