<?xml version="1.0" encoding="UTF-8"?>
<!DOCTYPE svg PUBLIC "-//W3C//DTD SVG 1.1//EN" "http://www.w3.org/Graphics/SVG/1.1/DTD/svg11.dtd">
<!-- Creator: CorelDRAW 2020 (64 Bit) -->
<svg xmlns="http://www.w3.org/2000/svg" xml:space="preserve" width="215.9mm" height="355.6mm" version="1.1" shape-rendering="geometricPrecision" text-rendering="geometricPrecision" image-rendering="optimizeQuality" fill-rule="evenodd" clip-rule="evenodd"
viewBox="0 0 21590 35560"
 xmlns:xlink="http://www.w3.org/1999/xlink"
 xmlns:xodm="http://www.corel.com/coreldraw/odm/2003">
 <g id="Camada_x0020_1">
  <metadata id="CorelCorpID_0Corel-Layer"/>
  <path fill="#F7ADAF" fill-rule="nonzero" d="M6699.72 7404.31c-0.55,12.16 9.31,13.51 13.13,25.45 -4.38,3.14 -8.75,5.86 -12.58,8.78 -15.32,-11.03 -24.07,-30.4 -32.27,-50 -3.84,7.22 -7.12,14.42 -10.4,21.4 -4.92,-18.91 -8.75,-34.68 -13.13,-52.47 -12.58,1.57 -25.72,3.6 -38.29,5.4 -6.02,12.39 -11.49,24.32 -16.96,36.04 -2.19,-6.53 -5.48,-12.85 -8.2,-18.92 -6.02,-11.04 -13.14,-21.4 -21.34,-33.33 -2.19,14.18 -4.38,26.35 -6.02,37.83 -4.92,0.45 -9.3,1.13 -13.13,1.57 -4.38,-10.58 -8.76,-21.16 -12.04,-31.97 -8.2,0 -15.86,0.22 -22.97,0 -16.96,-18.24 -33.92,-36.48 -50.32,-55.17 -0.55,-7.22 -1.1,-12.62 -1.65,-21.4 14.23,-9.23 31.73,-6.53 48.14,-10.13 4.92,6.07 10.4,11.93 16.42,17.78 -0.56,-16.21 -0.56,-32.87 0,-49.54 6.56,-12.16 18.04,-4.72 25.7,-9.23 3.29,-5.85 6.57,-11.72 10.4,-17.57 4.37,5.63 9.85,10.81 15.87,16.22 -1.64,-20.05 -1.64,-36.48 -2.2,-52.7 20.24,6.97 29.54,40.76 48.69,43.92 1.1,-11.71 -8.75,-26.35 3.28,-34.92 7.66,22.97 7.66,22.97 -3.28,34.92 0,0 0,0 0.54,0 7.66,14.86 7.66,14.86 20.8,11.26 1.09,-2.48 2.73,-4.97 2.73,-6.98 -3.29,-29.5 -7.11,-58.78 -10.39,-86.04 -4.92,-5.85 -8.76,-12.16 -13.14,-18.46 -1.08,-13.07 -3.28,-25.22 9.3,-26.58 8.76,-1.35 27.36,23.87 43.77,61.48 4.92,1.58 10.4,2.49 15.86,4.28 1.64,0.46 3.28,3.38 4.38,4.96 1.1,6.08 1.64,12.16 2.19,18.24 6.02,7.43 12.58,15.09 19.14,22.75 13.68,-12.61 12.58,-36.94 18.06,-56.31 6.02,-20.94 22.43,-23.19 31.73,-37.38 3.28,3.6 6.56,7.21 9.84,11.04 9.3,-5.41 6.56,-19.15 2.74,-26.13 -6.56,-11.04 -16.41,-17.57 -12.58,-36.03 10.94,-15.31 24.62,-8.11 37.2,-12.39 3.28,-6.3 6.56,-12.84 10.39,-19.59 11.48,-9.23 16.96,9.01 24.62,11.94 3.82,-7.22 8.2,-14.42 12.58,-21.62 6.57,5.17 13.67,10.58 20.79,15.53 4.38,-7.65 8.74,-15.53 13.12,-23.19 -2.18,-4.28 -3.28,-9.23 -5.46,-11.71 -18.6,-18.47 -39.39,-27.93 -60.73,-28.61 -9.84,-17.11 -4.92,-39.4 -8.2,-60.35 -8.21,-4.05 -15.32,-8.11 -22.98,-12.83 0,-6.32 0,-12.61 -0.55,-19.15 15.87,-35.13 43.23,-43.68 62.37,-74.09 22.43,-3.6 44.85,-7.44 66.74,-11.71 3.28,-6.09 6.56,-12.38 10.4,-18.7 26.79,-4.72 53.59,-9.23 79.31,-13.95 3.29,-5.86 6.57,-11.49 10.39,-17.56 17.5,-12.63 36.66,0 54.71,-22.75 -16.96,-10.37 -33.91,-0.46 -50.33,1.11 -17.5,1.81 -34.47,5.41 -51.41,8.34 -32.83,6.08 -65.65,12.39 -97.38,17.79 -3.84,-4.95 -7.66,-10.12 -11.49,-15.53 -68.39,12.16 -136.76,24.99 -204.05,37.15 -4.37,-5.4 -8.21,-10.81 -12.03,-16.22 -29.54,5.41 -60.17,10.82 -89.72,16.45 -3.83,-4.28 -7.11,-9.01 -10.4,-13.51 -10.94,2.03 -22.42,4.04 -33.91,6.07 -3.83,-4.72 -7.11,-9.67 -10.39,-14.64 -9.31,-0.22 -18.61,0 -27.35,-0.22 -1.1,-10.13 -1.64,-20.27 -3.28,-30.63 -7.12,-7.2 -13.68,-14.64 -20.79,-22.28 4.92,-33.34 22.43,-47.52 33.91,-68.92 7.12,-1.35 14.22,-2.94 21.88,-4.28 3.83,-5.86 8.21,-11.93 12.59,-18.02 10.38,-2.25 21.32,-4.51 32.82,-6.76 4.37,4.96 8.75,9.69 13.67,14.64 2.2,-12.39 3.28,-20.72 4.92,-30.41 12.04,-17.56 24.62,-8.55 37.75,-14.86 2.74,5.41 7.66,10.37 11.5,15.1 6,-16.22 12.02,-32.66 18.58,-49.11 -9.84,-14.86 -19.68,-29.72 -29.53,-44.81 12.59,-21.39 26.81,-43.01 39.39,-64.85 11.49,-11.04 22.43,-7.21 36.11,-12.17 4.36,-6.76 9.84,-13.51 13.67,-20.03 14.77,-3.16 29.54,-6.09 43.76,-9.01 4.92,-7.22 8.76,-14.2 12.58,-21.4 33.91,-6.98 67.84,-13.96 101.75,-20.49 3.28,-6.08 7.12,-12.39 10.94,-18.92 36.66,-7.21 74.4,-14.41 111.6,-22.07 4.38,-6.76 9.3,-13.74 13.68,-20.95 51.97,-9.23 105.03,-18.91 157.55,-28.38 3.28,-6.52 7.11,-12.61 12.03,-19.81 3.84,6.31 8.76,12.39 13.68,18.02 7.1,-6.54 14.22,-13.29 20.78,-20.49 3.29,3.6 6.57,7.2 9.31,10.8 3.82,-5.4 7.66,-10.8 12.04,-16.88 3.28,5.17 7.1,9.68 11.48,14.4 2.18,-4.04 4.92,-8.55 7.66,-12.83 1.64,-2.25 3.28,-6.07 4.92,-6.53 74.94,-12.61 150.43,-23.65 224.83,-34.46 3.28,-5.63 6.02,-10.13 8.76,-14.41 1.64,-2.03 2.74,-4.95 4.38,-5.17 105.57,-13.74 211.15,-26.59 316.18,-38.07 3.29,-6.08 7.11,-12.39 10.95,-18.47 56.35,-5.4 113.78,-10.58 171.21,-15.76 2.2,-7.88 4.38,-13.29 5.48,-17.56 28.99,-3.16 58.53,-7.22 87.52,-11.5 1.1,0 1.1,-4.04 2.2,-6.07 -42.13,-7.21 -59.63,-5.64 -89.72,17.57 -5.48,0 -11.5,0 -16.96,0.89 -4.38,-5.17 -8.2,-10.8 -12.04,-16.21 -12.03,-5.86 -15.86,13.73 -26.81,21.17 -7.1,-4.96 -14.22,-10.36 -21.32,-15.76 -41.03,3.6 -82.06,7.2 -122.55,11.7 -3.82,5.86 -7.66,11.95 -10.94,18.02 -97.92,10.58 -196.38,22.52 -294.3,35.36 -3.28,5.63 -7.12,11.7 -10.4,17.11 -12.58,3.16 -25.16,9.46 -38.83,1.81 0,-7.44 -0.56,-15.54 -0.56,-22.3 2.2,-3.6 3.28,-7.88 4.92,-8.11 59.09,-9.01 119.81,-16.67 179.98,-23.87 3.84,-6.31 8.22,-12.83 12.58,-19.59 3.84,5.17 7.66,10.14 12.04,15.09 3.28,-5.41 6.02,-11.04 9.3,-16.67 3.83,4.5 8.21,9.01 12.59,13.29 11.48,-1.13 23.52,-2.48 35.01,-3.6 4.92,-2.48 7.66,-23.65 20.78,-18.02 3.84,4.73 7.66,9.45 12.04,14.19 3.82,-5.86 7.66,-11.94 12.04,-18.25 131.83,-13.06 264.22,-24.1 396.6,-33.55 3.83,-5.63 8.21,-11.71 12.03,-17.34 3.29,4.95 6.57,9.68 9.86,14.64 3.28,-4.74 8.2,-9.69 12.58,-14.64 14.76,-0.9 30.63,-1.58 46.49,-2.47 3.28,4.5 6.02,8.99 9.3,13.73 3.83,-5.18 7.66,-10.13 12.04,-15.54 3.83,4.95 7.65,10.14 11.49,15.09 2.73,-3.83 5.46,-7.89 8.2,-11.93 3.28,-1.81 6.56,-5.41 9.84,-5.63 126.92,-5.41 253.83,-9.69 380.2,-12.85 3.84,-5.17 7.66,-10.8 12.04,-15.99 3.82,4.96 7.66,9.91 12.02,14.64 13.14,6.54 15.33,-13.96 28.45,-17.11 5.48,5.18 10.94,9.91 16.96,14.86 2.74,-4.05 6.02,-8.55 9.3,-12.61 407.55,-2.48 815.1,-2.7 1222.09,-2.7 3.3,4.73 6.58,9.23 9.86,13.74 3.82,-4.95 7.66,-10.14 12.03,-15.55 10.94,0 21.88,0 33.36,0 3.84,5.41 7.66,10.6 12.04,15.77 7.12,0 14.77,0 22.43,0 3.84,-5.17 7.66,-10.14 11.5,-15.08 26.8,0 53.61,0 80.41,0 3.28,4.5 6.56,9 9.85,13.29 6.02,-5.41 11.48,-10.6 18.04,-16.01 5.48,5.41 11.49,10.82 17.51,16.23 2.74,-4.06 7.11,-8.79 11.49,-13.97 7.11,0 14.23,0 21.87,0 3.84,4.96 7.66,10.13 11.5,15.1 4.92,-5.86 9.85,-11.95 14.77,-18.02 6.56,5.17 13.12,9.91 20.24,14.86 5.46,-4.73 10.39,-9.23 16.41,-14.2 5.47,5.19 10.94,10.6 16.96,15.77 5.46,-5.85 11.48,-11.71 16.96,-17.56 6.02,6.3 11.48,12.83 17.5,18.92 4.38,-5.18 8.75,-10.37 14.23,-17.79 8.2,6.29 16.4,11.93 25.16,18.24 43.77,0 87.52,-0.22 131.83,-0.22 2.2,7.2 3.28,11.48 4.38,16.21 24.07,0 48.15,-0.45 71.67,0.22 1.64,0 2.73,0.46 4.37,1.35 1.1,0.68 2.19,2.03 2.74,3.38 1.09,1.58 1.64,3.15 1.64,5.18 0.54,1.8 0.54,3.83 0,5.63 -5.47,0 -10.95,0 -16.41,0 -3.84,4.73 -7.66,9.92 -12.04,15.55 -4.38,-5.41 -8.74,-10.82 -13.12,-16.45 -11.5,0 -22.99,0 -34.47,0 -1.64,-4.73 -3.28,-9.68 -4.38,-14.86 -9.84,0 -18.6,0 -27.9,0 -4.37,5.4 -8.21,10.58 -12.03,15.54 -2.74,-3.61 -5.48,-7.44 -8.2,-11.48 -82.06,-7.44 -218.82,-5.63 -258.21,3.6 1.1,1.79 1.64,4.95 2.74,5.39 3.28,2.03 7.1,3.16 10.38,3.62 66.2,0 132.39,-0.46 196.94,-0.46 3.84,5.41 7.66,10.59 11.49,15.76 37.74,-0.22 75.49,-0.22 113.78,-0.44 3.84,5.63 7.66,11.02 12.04,16.43 49.23,-0.22 98.47,-0.44 147.71,-0.67 3.82,5.64 7.66,11.03 11.48,16.44 56.89,-0.22 114.33,-0.45 171.22,-0.68 3.29,4.74 6.57,9.24 9.3,13.97 22.44,-0.22 45.41,-0.22 67.83,-0.46 3.84,5.63 8.22,11.04 12.58,16.23 14.78,0 29.55,0 44.87,-0.24 3.82,5.41 8.2,10.59 12.58,15.77 25.71,-0.23 53.06,-0.45 79.32,-0.45 3.28,4.51 6.56,9.01 9.84,13.51 18.06,4.51 38.85,-1.12 59.09,2.7 3.28,4.51 6.56,9.01 9.85,13.52 26.8,-0.23 53.05,-0.45 79.86,-0.45 3.29,4.95 7.11,9.9 10.94,14.86 3.83,-4.28 7.66,-8.78 11.49,-13.29 3.83,4.73 7.67,9.23 12.03,13.74 19.15,0 38.3,-0.22 56.89,-0.22 4.92,7.66 9.86,15.3 14.78,22.96 -1.1,1.81 -2.74,7.44 -4.92,7.66 -22.98,1.13 -45.41,1.13 -67.83,2.03 -1.1,0 -2.74,3.15 -3.84,4.95 2.74,13.06 10.94,7.21 16.96,10.82 6.56,9.45 13.68,18.69 20.79,27.92 3.83,-4.51 8.2,-9.23 12.58,-13.96 18.06,0 37.2,-0.22 56.35,-0.22 3.82,4.95 7.1,10.13 10.94,14.86 10.94,0 22.97,0 34.47,0 4.36,5.17 8.74,10.36 12.58,15.31 7.1,0 14.22,0 21.87,0 4.38,5.41 8.76,10.58 13.14,15.76 10.94,-0.22 21.32,-0.22 32.81,-0.22 4.93,13.28 9.86,25.9 15.32,38.96 -3.28,4.72 -6.56,9.45 -9.84,14.19 7.66,12.61 18.04,4.51 26.8,7.43 7.66,-10.14 15.86,-20.5 24.07,-30.63 7.66,-0.22 15.32,-0.22 22.98,-0.22 13.12,15.98 2.72,26.34 -7.12,38.95 14.22,10.6 28.45,6.09 41.59,4.51 4.36,-4.95 8.74,-9.92 13.66,-14.64 1.64,10.59 2.2,17.57 3.28,25.9 -7.66,3.6 -15.3,6.98 -22.42,10.58 2.74,6.99 5.48,13.74 8.76,20.73 -8.22,11.26 -18.61,0.89 -26.27,6.3 -4.92,-5.63 -9.84,-11.27 -13.68,-17.12 -1.64,7.2 -3.82,14.64 -4.92,21.62 13.14,9.91 26.81,15.54 35.01,34.69 -6.56,3.14 -14.22,4.5 -19.69,10.13 -6.02,6.3 -10.94,13.5 -20.24,10.59 -11.48,-9.24 -1.1,-27.7 -7.66,-40.99 -4.92,-8.79 -13.13,-2.25 -20.24,-3.84 -0.55,9.01 -1.09,17.8 -1.64,26.36 -12.59,2.48 -12.59,-15.54 -21.33,-15.76 4.92,-18.47 14.76,-8.79 22.42,-11.27 0,-13.29 0,-26.58 0,-40.08 -4.38,-2.25 -8.74,-4.5 -13.12,-6.76 -14.22,6.76 -17.51,29.27 -31.73,31.76 -12.58,2.25 -18.06,15.08 -23.52,27.47 -1.1,24.32 22.42,26.57 22.42,48.87 -6.56,0.22 -12.58,0.22 -18.04,0.22 -0.56,6.54 -2.2,12.84 -4.38,19.15 -2.74,7.66 -6.56,14.64 -9.85,21.62 4.93,6.53 9.85,13.05 15.31,19.59 5.48,-7.2 11.5,-14.42 17.51,-21.84 0,-12.84 0,-25.91 0,-38.74 3.28,2.03 6.56,3.82 10.4,5.85 0,16.67 0,33.11 0,49.32 -1.1,6.76 -15.87,10.82 -7.12,33.1 3.83,5.41 7.66,10.82 11.49,16.23 12.03,-3.38 14.77,-20.5 30.63,-27.71 5.48,0 10.95,-0.22 15.87,-0.22 4.38,-5.41 8.76,-10.81 13.12,-16.21 5.48,9.23 12.04,18.01 16.42,28.37 6.02,14.41 8.75,31.07 15.32,44.59 6.56,12.39 15.87,21.62 24.61,33.1 12.04,-0.22 24.07,-0.22 35.57,-0.22 6.02,10.58 12.02,20.94 18.58,31.3 5.48,-0.23 10.95,-0.23 16.42,-0.23 1.64,6.32 3.28,12.85 6.02,22.97 -8.21,8.57 -16.42,17.13 -24.08,25.46 0,11.93 0,23.65 0,35.13 -3.82,5.41 -7.64,10.8 -10.92,16.21 3.28,5.19 6.56,10.58 10.38,15.77 1.64,13.05 -2.74,26.35 6.02,38.05 3.82,-11.48 7.66,-21.38 11.49,-32.2 4.92,13.52 9.84,26.81 15.32,40.08 -2.19,3.16 -5.48,8.57 -8.76,13.98 3.28,5.39 7.12,10.58 10.94,15.75 0,10.14 0,20.27 0,30.41 -3.28,2.47 -6.56,6.98 -9.3,6.98 -44.85,0.9 -89.71,1.36 -132.37,1.8 -4.38,5.86 -8.22,11.04 -12.04,16.67 -16.42,0.45 -32.29,0.67 -48.15,0.89 2.74,18.7 14.22,23.65 20.24,34.91 -1.64,3.16 -3.82,9.23 -5.46,9.23 -30.09,0.91 -59.63,1.35 -90.26,2.03 -4.38,11.49 -8.22,22.97 -11.5,34.46 -14.76,-9.68 -30.09,-19.37 -44.85,-29.27 -14.78,10.36 -28.45,21.16 -43.23,31.52 -4.36,-11.03 -8.74,-22.29 -12.58,-33.77 -4.36,0.22 -8.2,0.22 -12.02,0.44 -9.31,10.14 -2.74,23.88 -4.93,37.83 -4.92,7.22 -8.75,14.42 -13.68,21.4 -8.74,1.81 -16.96,3.38 -25.7,5.19 -1.64,2.25 -4.38,4.04 -4.38,5.85 1.1,20.49 2.18,40.99 3.28,61.02 -3.83,5.87 -7.11,11.5 -10.39,16.89 5.47,7.22 11.49,14.42 17.51,21.4 3.28,-4.95 7.1,-10.14 11.48,-15.31 8.75,-0.46 18.05,-0.68 25.71,-1.36 3.83,6.76 7.12,14.42 10.94,14.42 8.2,0.22 17.5,5.41 24.07,-6.54 -9.85,-15.99 -22.43,-4.72 -35.01,-7.88 5.48,-13.5 10.94,-27.47 14.22,-42.33 5.48,-2.7 10.94,-5.64 16.96,-8.56 0.54,-11.72 1.1,-23.64 1.64,-35.81 7.11,-11.26 17.51,-3.82 26.27,-6.53 3.82,4.96 8.2,10.13 13.12,14.87 7.66,0 15.32,-0.23 23.52,-0.46 1.65,6.08 3.29,12.61 6.57,23.21 -11.49,13.5 -22.43,26.79 -33.91,40.3 0,7.2 0.54,14.42 1.08,21.62 8.2,11.95 18.06,5.63 26.81,6.31 7.66,0.67 14.78,-0.23 22.42,-0.45 9.3,-0.45 18.06,-0.45 27.36,-0.91 0.55,-20.94 -10.4,-10.58 -20.24,-29.04 1.64,6.3 -0.54,-2.71 -3.84,-10.58 -1.64,-2.71 -5.46,-3.16 -8.2,-4.51 -2.18,4.51 -4.92,9 -7.66,13.28 -7.1,-11.71 -1.08,-12.15 6.02,-14.64 -0.54,-17.34 -1.08,-34.67 -2.18,-52.25 -4.38,-6.07 -9.3,-12.37 -13.68,-18.91 7.12,-1.8 14.78,-3.83 21.88,-5.63 1.64,10.14 2.74,17.12 3.82,25 9.31,11.71 18.61,23.19 27.91,34.45 5.48,1.57 12.58,3.16 18.06,4.51 1.08,16.21 1.64,32.66 2.18,48.87 6.02,7.88 12.58,15.76 18.6,23.65 7.66,-0.23 14.77,-0.46 22.97,-0.46 12.58,-15.75 -1.08,-38.05 4.92,-55.85 2.2,-1.13 3.84,-2.48 6.02,-3.6 3.28,-5.17 6.02,-10.14 9.3,-15.55 6.57,11.5 0.55,11.95 -6.56,14.64 0.54,12.39 1.1,24.56 1.64,36.72 4.38,5.4 8.21,11.03 13.13,16.66 -8.21,10.36 -16.41,20.73 -24.61,31.09 4.38,9.01 8.74,16.43 12.02,24.54 3.84,7.88 6.02,16.67 9.31,24.77 11.49,4.95 13.13,4.06 17.5,-13.29 0,0 0,0 0,0 -4.92,0.68 -9.84,-0.67 -9.3,-9.68 0.55,-2.71 5.48,-3.38 8.76,-5.63 0,0 0,0 0,0 -2.19,-15.76 11.48,-17.34 12.58,-31.75 9.84,11.7 18.6,21.39 27.9,31.29 7.66,0 16.41,0 25.17,-0.44 1.08,8.33 2.72,16.89 3.82,25.9 -31.18,6.53 -55.25,22.52 -71.11,54.28 -10.94,-6.09 -20.25,-12.85 -30.63,-19.37 -16.96,18.01 5.46,46.84 -9.86,62.37 -6.01,-6.52 -12.03,-13.74 -17.5,-20.94 2.74,-10.36 15.32,-15.54 4.38,-35.35 -12.59,-8.57 -29.55,-0.45 -49.23,-2.94 -4.38,6.98 -9.31,13.98 -13.14,20.27 -1.09,29.51 18.06,31.09 22.98,51.58 -3.28,5.86 -6.56,11.71 -10.4,17.34 -20.23,17.34 -38.29,-21.17 -62.9,-3.84 -4.38,4.29 -8.22,8.57 -12.04,12.85 -6.56,-5.85 -12.58,-11.72 -19.14,-17.8 -10.95,0.45 -20.79,0.91 -31.19,1.13 -4.92,5.19 -9.3,10.58 -13.68,15.77 -14.76,1.12 -20.78,-24.32 -35.55,-10.58 -1.1,6.52 -1.1,13.05 -1.64,19.36 6.56,7.21 12.58,14.64 19.69,21.39 16.96,10.81 26.8,-13.96 41.58,-16.88 4.37,5.17 9.3,10.36 14.22,15.75 3.29,-5.17 6.57,-10.36 10.39,-15.31 15.32,-4.95 25.72,26.81 47.59,8.57 2.2,-2.71 4.94,-5.41 7.12,-8.34 6.56,4.72 12.58,9.69 19.14,14.41 5.48,-5.85 11.49,-11.7 16.97,-17.11 3.82,6.3 8.74,13.96 14.22,23.19 -6.56,4.28 -12.04,8.56 -18.06,12.85 3.84,12.83 12.58,6.29 17.5,10.58 4.38,3.37 8.22,7.42 12.04,11.48 2.74,-4.28 6.02,-9.01 8.76,-13.29 4.92,5.18 9.84,10.36 15.31,15.54 18.06,-0.22 35.56,-0.44 53.61,-1.12 -16.95,7.2 -33.91,14.18 -50.33,21.17 8.76,4.73 16.42,9.45 24.62,14.18 -5.46,20.27 -25.7,-0.68 -33.37,20.27 19.15,8.55 37.2,2.26 54.71,3.83 16.95,0.9 32.82,-5.63 55.25,7.21 -22.43,10.12 -38.84,5.86 -54.16,7.65 -7.11,7.66 -14.22,15.1 -20.24,22.08 20.79,18.24 40.48,-1.59 57.99,13.51 -2.74,5.63 -6.02,11.03 -9.31,17.12 7.12,4.72 14.78,9.23 22.43,13.73 0.56,5.17 0.56,10.36 0.56,15.77 -10.4,7.88 -20.79,15.53 -30.65,22.97 -9.28,0.44 -19.14,0.66 -27.89,0.9 -4.38,5.63 -8.76,10.8 -12.58,16.21 -38.3,1.35 -74.95,2.48 -111.6,4.05 -4.38,5.63 -8.2,10.81 -11.48,16.22 -78.24,3.38 -156.46,7.65 -234.69,12.15 -2.18,3.84 -4.92,7.66 -10.94,14.87 -31.73,4.96 -66.74,3.61 -101.74,8.56 -3.29,4.95 -6.02,9.69 -9.31,14.64 -78.23,4.95 -156.45,10.8 -234.68,16.67 -4.38,6.98 -7.11,10.36 -11.48,17.56 -135.13,11.04 -269.16,21.62 -402.63,32.66 -4.38,6.07 -8.2,11.93 -11.49,17.56 -406.99,32.2 -812.91,57.88 -1220.45,70.49 -3.28,5.18 -6.56,10.58 -9.85,15.54 -119.8,1.79 -239.6,4.73 -358.85,12.83 -3.84,-4.5 -7.66,-9.45 -11.5,-14.18 -6.02,6.76 -12.02,13.96 -16.4,20.5 -7.12,-6.32 -13.13,-12.85 -19.15,-19.37 -356.67,47.06 -712.8,114.62 -1067.27,191.42 -3.84,-4.51 -7.12,-9.23 -9.86,-13.74 -59.08,12.61 -118.71,25.22 -177.78,37.83 -4.92,-5.63 -8.76,-11.26 -12.58,-16.66 -22.44,4.27 -44.31,8.78 -66.2,13.06 -3.83,-4.95 -8.2,-10.14 -12.04,-15.08 -26.8,5.4 -53.61,10.35 -80.41,15.52 -10.39,-16.65 -20.25,-33.77 -30.09,-50.88 -16.96,2.92 -32.82,5.63 -49.23,8.33 -14.77,-17.56 -4.38,-30.85 1.64,-45.05 -0.54,-11.71 -1.64,-23.63 -2.74,-35.35 12.58,-19.82 16.42,-54.27 39.39,-54.51 -3.82,-19.58 -13.67,-29.72 -19.69,-30.16 -11.5,-0.91 -15.86,-4.73 -20.24,-22.97 -2.74,-11.26 -13.13,-19.61 -18.6,-26.13 -21.33,-2.49 -10.39,25.89 -18.05,37.61 -4.92,-4.73 -9.86,-9.69 -14.22,-14.42 -10.94,2.03 -21.89,4.06 -32.29,5.63 -6.02,4.95 -6.02,21.62 -15.86,20.72 0.54,8.11 3.28,16.67 3.28,24.09 -1.08,5.41 -7.1,9.01 -9.84,13.52 -0.54,-11.93 -2.18,-23.87 -3.83,-36.03 3.29,-0.68 7.11,-1.12 10.39,-1.58 -1.1,-4.73 -2.74,-13.51 -5.46,-13.51 -6.57,-1.57 -6.57,6.31 -5.48,15.09 -7.11,-1.12 -9.3,6.3 -9.3,15.31 0.55,12.39 3.28,23.43 13.68,20.5 1.64,5.18 3.82,13.95 5.46,13.73 15.87,-1.35 29.55,28.84 51.97,8.57 3.84,-7.44 7.12,-15.1 11.5,-22.53 -4.92,-7.44 -10.4,-14.86 -15.86,-22.52 5.46,-2.92 10.94,-5.41 16.4,-8.33 15.87,14.86 5.47,40.31 12.58,57.88 4.38,9.46 8.76,18.46 13.69,27.7 -8.76,1.57 -17.51,2.93 -25.73,4.28 -19.14,32.2 13.69,38.73 8.76,62.38 -11.48,15.77 -11.48,15.77 -27.34,0.22 -5.48,7.21 -10.95,13.96 -15.33,20.72 -8.75,-5.85 -17.5,-11.93 -25.16,-18.02 -5.48,7.22 -10.94,14.2 -16.41,21.18 -1.09,-5.86 -6.02,-13.07 -4.93,-18.93 1.64,-16.43 7.12,-31.29 17.5,-38.73 3.3,11.26 3.3,25.46 12.04,11.71 -3.82,-4.27 -7.66,-8.55 -12.04,-11.71 2.74,-26.79 -14.76,-41.21 -20.78,-65.08 -2.73,-10.14 -7.66,-18.92 -13.67,-31.76 -3.84,-1.8 -11.5,-1.8 -16.96,-7.88 -7.66,-7.2 -12.58,-13.05 -20.24,-8.55 -13.68,-16 -26.81,-31.99 -39.39,-48.2 -3.28,5.41 -6.56,11.04 -9.85,16.21 -11.48,4.96 -24.06,11.94 -35,-9.68 -11.5,2.03 -22.99,3.38 -34.47,4.95 -3.28,6.31 -6.56,12.85 -9.84,18.92 -5.48,-8.1 -10.94,-16.67 -19.16,-29.28 -1.64,-10.8 -2.73,-21.84 -4.37,-33.1 -8.76,-8.1 -17.5,-15.99 -26.26,-24.09 -2.18,-15.99 -3.82,-32.22 -6.56,-48.43 -13.13,-14.18 -27.35,-28.37 -41.03,-42.11 0.54,-12.17 1.64,-20.04 2.18,-29.04 4.92,5.63 10.4,11.02 14.78,16.43 3.28,-6.08 6.01,-11.93 9.3,-17.8 6.56,7.89 13.13,15.77 20.23,23.43 0.56,5.85 1.64,12.17 2.2,18.02 10.94,13.29 21.88,26.34 33.37,39.41 6.02,-4.06 5.46,-20.27 15.32,-18.92 -1.64,-11.48 -3.84,-23.43 -5.48,-35.35 10.4,-2.48 13.68,8.55 13.68,20.71 0.54,8.79 -1.1,15.77 -8.2,14.86 1.64,18.25 13.12,22.07 20.23,31.54 3.29,3.15 9.3,-1.13 13.68,-1.81 4.92,-27.47 -5.47,-44.81 -14.77,-62.83 6.56,-13.51 17.51,-5.63 25.71,-10.58 5.48,-22.75 4.38,-51.8 26.8,-66.44 -9.84,-3.16 -18.6,-6.3 -27.34,-9.68 -4.38,-9.69 -7.66,-19.6 -11.5,-30.18 -2.73,4.72 -6.01,7.88 -5.47,11.7 1.1,11.04 2.19,22.08 3.83,33.34 -6.56,16.66 -17.51,9.01 -25.71,13.52 -4.92,-5.19 -9.84,-10.6 -14.76,-16.23 -14.78,2.03 -30.09,4.28 -44.31,6.31 -4.93,-5.18 -9.86,-10.35 -14.23,-15.54 -3.83,6.09 -6.57,11.72 -9.3,17.57 -8.76,-10.13 -17.5,-27.02 -24.62,-27.71 -12.58,-0.89 -20.24,-15.98 -31.73,-17.33 -5.46,-0.22 -11.48,0.44 -16.4,2.25 -3.28,6.53 -7.12,13.07 -9.86,19.14 -3.82,0.69 -7.65,1.35 -10.94,1.58 -3.28,0 -6.56,0.68 -10.39,1.58 -1.64,0.45 -2.18,4.05 -3.83,5.63 -9.29,10.8 -18.59,21.16 -27.89,31.76 -3.84,-4.29 -7.12,-8.57 -10.4,-12.85 -9.31,0.9 -19.15,2.25 -28.99,3.16 -12.58,-8.11 -25.17,-16.44 -37.75,-24.56 8.2,-18.24 20.79,-33.32 23.52,-54.26 2.74,-20.49 6.57,-35.13 15.33,-48.2 11.48,-3.83 18.04,4.72 18.58,24.99 6.57,7.44 12.59,14.64 19.71,22.08 12.02,-1.35 23.52,-2.93 36.1,-4.28 0.54,-12.83 1.64,-23.43 2.73,-35.36 5.47,5.41 10.4,10.81 15.32,16.22 11.48,-1.58 22.98,-3.38 33.92,-4.95 3.83,-9.69 7.65,-19.15 12.03,-28.84 -7.66,-4.27 -15.31,-8.77 -22.97,-13.05 0.54,-11.27 10.39,-15.77 6.56,-29.73 18.05,3.6 25.17,-22.74 38.83,-29.5 -4.92,-13.52 -9.84,-27.47 -15.86,-40.32 -1.64,-3.6 -7.1,-3.14 -9.3,-2.25 -2.73,-11.26 -4.37,-25 -12.57,-11.49 4.37,4.51 8.75,8.11 12.57,11.49 0.56,8.34 1.65,17.11 2.74,25.9 -5.47,11.7 -11.49,24.33 -17.51,37.61 -0.54,1.58 0.55,5.4 1.1,8.56 -10.4,1.35 -19.7,2.92 -29.54,4.51 -0.54,10.35 -1.64,20.49 -1.64,30.39 -9.3,9.91 -19.15,12.62 -31.73,2.93 2.18,-6.53 4.38,-12.83 7.11,-19.59 -4.93,-11.04 -17.51,-15.99 -15.31,-34.01 3.28,-6.97 6.02,-13.51 8.74,-20.49 -1.64,-14.64 -3.82,-29.06 -5.46,-43.92 3.82,-0.22 7.1,-1.57 10.38,-4.04 3.84,11.02 3.84,24.76 12.04,11.02 -3.28,-4.05 -7.66,-7.88 -12.04,-11.02 3.3,-8.79 5.48,-17.8 7.67,-27.71 -16.41,-18.47 -32.83,-37.15 -48.69,-56.3 -4.37,22.75 4.38,45.94 1.64,66.89 -1.64,9.68 -4.92,19.81 -3.83,29.95 0.55,8.56 6.02,15.08 12.04,12.16 0.55,16.66 8.21,34.01 2.73,52.7 -4.92,-4.51 -9.29,-9.01 -13.67,-13.74 -3.28,5.63 -7.12,11.48 -10.4,17.11 -4.38,-10.81 -9.3,-21.61 -14.22,-32.43 -5.46,6.09 -10.39,13.07 -14.77,21.17 -3.28,-11.04 -4.92,-24.54 -13.13,-11.26 4.38,4.28 8.75,8.11 13.13,11.49zm519.69 174.76c2.18,1.81 4.92,3.6 7.66,5.18 -0.54,2.02 -1.64,6.3 -2.74,6.3 -2.74,-1.12 -5.46,-2.47 -8.74,-4.5 1.08,-2.03 2.72,-4.51 3.82,-6.98zm-94.64 410.55c3.84,4.5 8.2,9 12.58,13.29 -7.66,11.93 -9.3,2.47 -12.04,-9.24 -4.92,0.91 -10.38,1.58 -15.3,2.26 -9.85,-8.11 -10.4,-19.61 -4.93,-33.34 8.21,6.53 16.41,13.07 19.69,27.03zm4390.02 -636.66c1.64,2.93 2.19,6.31 3.83,9.91 0,1.35 -2.74,3.61 -3.83,5.41 -1.64,-3.38 -2.74,-6.75 -4.38,-10.37 0,-1.35 2.19,-3.36 4.38,-4.95zm59.62 -169.13c3.28,-1.79 8.76,-2.7 9.3,-5.17 1.1,-9.23 -4.38,-10.36 -9.84,-10.14 0,5.41 0.54,10.36 0.54,15.31zm-269.69 -102.01c-2.73,-1.58 -4.93,-3.38 -7.11,-5.18 1.1,-1.81 2.18,-5.18 3.83,-4.73 2.73,0.9 4.93,2.47 7.66,4.28 -1.64,2.02 -3.29,3.82 -4.38,5.63zm-4664.63 321.36c-1.09,2.25 -2.18,4.5 -2.74,6.76 -2.18,-3.6 -3.82,-7.21 -5.46,-11.27 0,-1.34 1.64,-4.26 2.74,-6.07 1.64,3.6 3.28,6.98 5.46,10.58zm119.26 -63.27c2.19,12.15 -1.09,18.68 -9.3,19.36 -1.09,-12.38 1.09,-18.7 9.3,-19.36 0,-4.97 0.55,-13.74 1.65,-14.64 6.56,-3.16 8.74,4.28 9.84,13.05 -3.84,0.68 -7.66,0.91 -11.49,1.59zm-332.6 -83.56c3.82,4.06 7.66,8.33 12.03,11.94 -7.11,10.58 -9.29,4.05 -12.03,-5.63 -3.84,-3.84 -7.66,-7.88 -10.94,-12.16 6.02,-10.14 7.66,-3.61 10.94,5.85zm56.89 -22.52c-2.74,6.08 -4.92,11.94 -7.12,17.57 -8.2,-12.39 -2.72,-13.74 4.38,-17.34 -1.1,-7.66 -1.64,-15.54 -2.74,-23.2 3.84,-17.8 13.14,-10.14 22.44,-13.74 -4.38,18.92 -8.21,31.53 -16.96,36.71zm223.19 -84.9c1.64,3.6 3.28,7.65 4.38,11.49 0.54,1.57 -1.64,4.28 -2.74,6.29 -1.64,-3.37 -2.73,-7.2 -4.37,-11.48 -0.55,-1.35 1.64,-4.28 2.73,-6.3zm-33.37 -54.96c0.56,-4.04 1.64,-8.1 2.74,-12.15 1.64,1.8 4.38,3.6 4.38,5.4 -0.56,4.06 -1.64,8.34 -2.2,12.16 -1.64,-1.57 -3.82,-3.38 -4.92,-5.41zm5059.6 -381.94c-3.84,-3.83 -7.12,-7.89 -10.4,-11.71 8.76,-9.46 9.3,-1.35 10.94,9.01 13.14,-0.22 26.26,-0.22 39.94,-0.22 5.47,8.55 10.93,17.11 16.95,25.66 -7.1,5.85 -13.66,11.49 -20.24,16.89 -3.82,17.58 0,29.28 -10.94,31.98 -2.73,-8.77 -4.92,-17.56 -7.11,-26.57 -8.76,-1.35 -17.5,-2.47 -26.26,-3.6 -3.82,-5.63 -3.82,-5.63 7.12,-21.62 0,-6.53 0,-13.07 0,-19.82zm-7.12 -50.89c-1.64,-1.81 -3.28,-3.61 -4.37,-5.63 2.73,-1.81 4.93,-3.38 7.65,-4.51 1.1,-0.45 2.74,2.92 3.84,4.51 -2.74,2.02 -4.92,3.82 -7.12,5.63zm-5051.92 328.11c3.28,4.29 6.56,8.35 10.93,11.95 -7.65,11.93 -9.29,2.92 -11.49,-8.57 -6.56,0.91 -10.94,-3.38 -12.03,-13.05 -3.83,-3.6 -7.66,-7.89 -10.94,-12.17 8.21,-11.94 9.29,-2.47 11.49,8.79 7.1,-1.13 10.38,3.14 12.04,13.05zm-88.64 -74.31c-2.72,-1.35 -5.46,-3.15 -7.64,-4.96 1.08,-2.02 2.18,-6.3 3.28,-6.08 2.72,0.91 5.46,2.26 8.74,4.06 -1.64,2.48 -3.28,4.95 -4.38,6.98zm5069.45 -522.02c-4.37,-4.28 -8.21,-8.56 -12.03,-13.07 10.39,-10.58 9.3,1.13 12.03,13.07zm-5169.01 191.86c-3.82,6.09 -6.56,11.95 -9.84,18.02 -4.92,-11.48 -0.54,-13.96 6.02,-17.56 4.38,-7.88 6.56,-12.39 9.84,-17.57 4.93,11.26 0.55,13.74 -6.02,17.11zm266.42 -277.89c-1.64,4.28 -3.28,8.33 -4.38,12.38 -1.09,-1.58 -3.28,-3.37 -3.28,-4.96 1.09,-4.49 2.19,-8.55 3.83,-12.83 0.55,2.03 2.19,3.84 3.83,5.41zm4182.68 -272.95c-1.1,1.79 -2.18,3.6 -3.28,5.41 -1.64,-3.16 -2.74,-6.76 -3.82,-10.37 0,-1.35 2.72,-3.37 3.82,-5.18 1.1,3.38 2.74,6.76 3.28,10.14zm-138.41 -23.2c1.1,1.8 2.74,3.83 4.38,5.63 -2.72,2.03 -5.46,3.61 -7.66,4.74 -1.08,0.44 -2.72,-3.16 -3.82,-4.74 2.18,-1.8 4.38,-3.83 7.1,-5.63zm-4033.33 1445.59c-5.47,13.52 -12.58,14.64 -22.43,2.7 6.02,-13.28 13.67,-14.41 22.43,-2.7zm-93 65.32c-6.02,13.5 -13.12,14.4 -22.43,2.92 5.47,-13.74 12.59,-14.42 22.43,-2.92zm-13.12 28.6c9.84,10.58 11.48,22.28 4.92,35.13 -9.3,-10.82 -10.94,-22.52 -4.92,-35.13zm305.24 104.49c-13.13,-8.78 -13.13,-8.78 -10.94,-33.11 12.58,5.18 7.66,22.07 10.94,33.11zm159.19 276.33c-7.1,14.18 -14.22,15.08 -22.43,3.38 6.02,-14.2 13.13,-15.32 22.43,-3.38zm-421.22 -962.53c8.2,13.74 9.84,23.19 5.47,34.45 -13.68,-5.17 -10.94,-16.89 -5.47,-34.45zm32.28 -39.86c9.29,10.58 10.39,22.3 2.18,35.58 -8.76,-10.36 -9.84,-22.07 -2.18,-35.58zm4862.66 -470.23c9.29,-11.93 15.86,-8.78 22.97,-4.51 -5.47,18.24 -12.59,13.97 -22.97,4.51zm-136.22 -255.16c-5.47,1.58 -10.39,2.48 -15.31,2.48 -1.66,0.22 -3.3,-5.85 -4.38,-9.45 0,-1.13 2.72,-4.97 3.82,-4.73 4.92,0 10.4,1.12 15.32,2.25 0,3.14 0.55,6.52 0.55,9.45zm-4660.25 105.4c-6.57,19.59 -6.57,19.59 -21.34,15.09 4.38,-20.27 14.22,-10.36 21.34,-15.09 1.09,-5.4 1.64,-13.06 3.83,-15.32 8.2,-8.1 16.96,-14.18 31.18,-26.34 15.86,-3.16 31.17,-6.32 46.49,-9.23 6.57,-8.35 13.13,-16.45 19.7,-24.78 8.21,5.85 16.95,11.26 24.61,16.89 5.48,-7.21 10.94,-14.64 16.42,-22.3 3.83,5.19 7.65,9.69 10.94,14.64 13.13,-2.47 26.25,-4.95 39.39,-7.42 6.56,-19.61 7.11,-19.37 21.87,-14.42 -4.92,19.14 -14.76,9.23 -22.42,16.89 -1.65,4.51 -2.74,9.23 -3.83,14.86 -45.95,9.24 -90.81,18.25 -135.67,27.03 -4.37,6.3 -7.66,12.38 -10.94,18.24 -12.58,10.81 -27.34,5.86 -41.57,11.26zm3955.11 -292.32c9.3,-10.36 15.86,-10.81 22.43,-2.26 -4.37,16.9 -12.04,12.17 -22.43,2.26zm795.95 480.36c1.64,-13.73 2.73,-22.52 3.82,-33.78 6.02,8.11 10.4,12.39 13.13,18.02 1.65,3.15 3.29,6.53 4.38,10.13 -3.28,1.81 -5.47,3.83 -8.75,4.95 -1.64,0.91 -3.83,0.68 -12.58,0.68zm112.69 -186.46c9.3,2.25 18.06,4.72 27.34,6.98 -9.28,9.23 -12.56,21.17 -22.96,23.42 -0.55,-6.98 -1.64,-13.73 -4.38,-30.4zm-5065.07 804.43c11.49,-0.68 7.11,15.09 10.95,22.29 3.28,6.31 9.3,9.45 18.04,18.7 -7.66,3.38 -14.76,6.08 -22.42,9.01 -8.75,-18.02 -10.94,-33.56 -6.57,-50zm88.08 -767.95c15.31,-24.78 30.63,-17.34 45.41,-18.02 -14.22,22.74 -30.64,12.61 -45.41,18.02zm4716.59 -188.28c0,10.14 0,20.05 0,29.96 -6.56,1.57 -12.58,3.16 -18.6,4.73 -1.64,-9.45 -2.72,-18.02 -4.36,-28.6 7.64,-2.03 15.3,-3.84 22.96,-6.09zm-4644.93 691.16c0.55,11.72 0.55,23.42 1.1,34.91 -6.57,2.93 -12.04,5.85 -18.06,8.78 -1.09,-11.04 -3.28,-20.71 -4.93,-32.88 6.57,-3.38 14.23,-6.98 21.89,-10.81zm-71.66 -499.28c-9.84,20.27 -30.09,38.73 -43.22,39.86 0.55,-15.77 10.4,-22.52 15.86,-34.23 9.3,-1.79 18.06,-3.82 27.36,-5.63zm409.19 -145.26c-5.47,8.34 -7.67,11.94 -8.76,12.16 -18.05,3.83 -36.65,7.21 -55.25,10.14 -1.09,0.22 -2.73,-3.6 -3.83,-5.41 14.77,-16.43 14.77,-16.43 67.84,-16.89zm-526.25 941.13c-7.12,3.6 -15.32,7.22 -22.99,10.82 -1.64,11.48 -3.28,22.97 -5.46,34.67 -4.38,0.46 -8.22,1.13 -12.04,1.59 -13.68,-13.98 4.38,-19.83 2.74,-31.31 -2.2,-10.14 -3.28,-20.5 -4.38,-30.41 1.1,-3.14 2.74,-6.07 3.82,-9.23 8.22,13.97 20.25,13.51 38.31,23.87zm4243.95 -1111.15c0.54,-9.01 1.64,-17.8 2.18,-29.51 4.93,6.08 9.85,12.17 14.77,18.24 3.28,-4.94 7.66,-10.13 10.94,-15.08 3.28,4.5 6.56,9.01 9.84,13.28 19.16,7.44 41.59,-3.83 64.01,5.86 -17.5,14.87 -26.26,15.31 -101.74,7.21zm-239.06 -26.13c5.47,0 10.4,0 16.4,0 3.84,-4.95 7.66,-10.13 12.04,-15.32 2.74,3.62 5.48,7.66 10.4,13.97 37.75,-0.23 75.5,-0.23 113.79,-0.23 7.66,10.59 8.2,19.6 2.18,30.86 -8.2,0 -16.96,0 -25.71,0.22 -3.28,-4.72 -6.56,-9.23 -9.84,-13.95 -38.31,0 -76.59,0.22 -114.34,0.44 -2.18,-5.41 -3.28,-10.58 -4.92,-15.99zm1115.96 372.72c-9.84,9.45 -19.69,18.91 -28.99,28.37 4.93,11.93 9.85,23.88 15.31,35.81 0,9 0,18.24 0,27.25 -9.84,12.61 -19.14,25.22 -27.89,37.6 -6.56,-11.02 -19.7,-15.98 -16.96,-37.15 7.12,-4.74 14.22,-9.46 21.34,-14.41 6.01,-17.8 -7.12,-25.46 -12.04,-34.23 14.77,-33.79 23.52,-46.62 36.65,-50.9 2.74,-1.13 6.02,3.38 12.58,7.66zm-4421.19 -212.82c-4.38,6.75 -8.2,13.06 -12.04,19.59 -2.73,-4.72 -6.02,-9.23 -9.3,-13.73 -23.53,3.82 -47.59,7.88 -70.56,11.48 -2.74,4.95 -5.48,9.9 -8.76,14.64 -6.02,-4.74 -12.58,-9.91 -18.6,-14.64 -6.01,7.88 -12.03,15.31 -18.05,22.97 -7.12,1.35 -14.22,2.7 -20.78,3.82 -8.76,-9.45 -8.21,-21.62 0.54,-35.35 3.84,4.96 7.12,10.35 11.48,15.32 3.28,-5.86 6.58,-12.17 10.4,-18.24 71.12,-11.95 142.23,-23.88 213.35,-34.69 4.38,-8.11 10.94,-16.44 16.96,-24.54 8.2,6.52 15.86,13.05 24.61,19.59 5.47,-6.98 10.94,-13.96 16.96,-20.95 7.12,5.18 6.56,15.54 3.84,26.8 -2.2,2.93 -3.29,6.98 -4.38,7.2 -45.41,6.76 -90.26,13.29 -135.67,20.73zm4509.81 263.94c0.56,-7.88 0.56,-15.32 0.56,-22.98 5.46,-2.92 11.48,-6.08 17.5,-9.23 7.66,13.51 15.31,27.48 25.17,43.92 -2.74,4.06 -4.93,7.88 -7.12,11.7 -0.55,10.36 -1.64,22.3 -2.74,36.26 -5.47,0.91 -12.58,4.73 -15.31,1.81 -12.58,-14.42 -24.08,-30.85 -37.2,-48.65 -7.66,6.32 -15.33,12.61 -22.43,18.69 -5.48,-9.68 -10.4,-19.59 -15.32,-29.73 -6.56,0.23 -12.58,0.23 -18.6,0.23 -1.64,-8.11 -2.73,-16.21 -3.83,-24.32 7.12,-4.05 14.23,-7.88 21.89,-11.71 -4.38,-10.13 -8.21,-19.59 -13.13,-30.85 6.56,-4.74 13.13,-9.91 20.23,-14.86 4.38,11.02 8.76,22.06 13.14,33.1 -2.74,3.6 -4.92,7.2 -7.12,10.58 7.66,5.63 15.86,10.14 22.98,16.21 7.66,6.32 11.49,19.83 21.33,19.83 1.64,8.77 1.1,20.72 10.94,10.14 -3.28,-3.84 -7.1,-7.44 -10.94,-10.14zm-561.81 656.47c8.21,-3.6 16.96,-2.92 8.21,-16.21 -2.19,4.5 -4.38,8.55 -2.19,12.38 -8.21,3.83 -17.51,2.92 -8.75,16.21 1.64,-4.28 4.37,-8.55 2.73,-12.38 0,0 0,0 0,0zm-4262.55 -40.09c4.37,13.52 4.37,27.48 12.59,13.52 -2.74,-3.38 -6.02,-7.22 -8.76,-4.06 -4.92,-13.52 -5.47,-27.25 -13.13,-13.52 3.28,3.6 7.11,7.22 9.3,4.06zm4322.72 -579.68c7.12,-3.15 17.52,7.21 21.88,-9.45 -15.3,-6.53 -15.3,-6.53 -20.78,10.8 -1.1,-0.9 -1.64,-2.03 -2.18,-3.15 -3.29,3.83 -6.57,7.44 -9.31,11.04 1.1,1.8 2.19,3.37 3.29,4.95 3.28,-4.27 5.46,-9 7.1,-14.19zm-4396.57 620.89c-3.84,-13.73 -4.92,-27.47 -13.12,-13.96 3.28,4.29 7.1,7.21 11.48,9.01 2.18,15.31 3.28,30.41 4.92,45.27 12.04,6.98 23.53,13.74 35.55,20.04 -2.18,-15.09 -3.82,-30.41 -5.46,-45.72 -6.56,-7.2 -12.58,-14.86 -18.05,-22.3 -6.02,0.91 -10.94,1.59 -15.32,7.66zm167.39 605.8c18.05,-5.63 10.95,30.19 22.43,33.11 8.2,-4.51 19.7,3.38 25.17,-10.36 0,-5.63 0,-11.71 -0.55,-17.8 -12.04,-25.44 -30.64,-26.12 -49.78,-40.52 1.64,13.27 1.64,24.54 3.28,35.57 -9.85,12.62 -9.85,12.62 -2.19,35.36 11.49,-8.79 1.64,-23.65 1.64,-35.36zm34.47 -715.7c10.39,-9.46 19.15,-24.32 28.45,-24.32 12.02,-0.22 16.94,-16.89 26.8,-21.4 2.73,3.84 5.47,7.66 8.75,11.49 42.67,-6.98 84.79,-14.18 127.46,-21.62 4.92,-10.36 9.84,-20.72 14.22,-30.85 -2.73,-7.43 -4.92,-15.31 -7.1,-22.97 -3.84,0.9 -8.22,1.57 -12.04,2.25 -3.84,6.76 -7.66,13.29 -11.48,19.81 -56.9,9.92 -113.25,19.15 -169.6,29.06 -3.82,12.39 -13.12,20.27 -14.22,39.64 2.74,6.3 5.48,12.83 8.76,18.91zm-90.26 32.88c10.93,-36.02 32.27,-17.78 44.85,-34.01 8.75,-8.99 16.96,-18.24 26.27,-27.69 -2.2,-8.33 -4.38,-15.77 -7.12,-23.42 -7.11,8.11 -14.23,16.21 -20.25,24.1 -6.02,-6.31 -10.94,-12.39 -15.86,-18.92 -11.48,2.25 -22.97,4.28 -33.91,6.07 -3.28,6.31 -6.56,12.63 -9.86,18.7 -4.36,-4.06 -8.74,-8.1 -12.02,-12.39 -6.02,7.43 -12.04,14.64 -17.51,21.85 -4.92,-5.41 -10.4,-10.59 -15.86,-15.77 -5.48,5.85 -10.4,13.51 -15.86,17.8 -6.02,4.5 -13.68,5.63 -20.25,9.23 -0.55,0 -1.09,3.82 -1.09,5.41 5.47,7.88 11.48,15.54 18.06,22.96 7.1,-1.57 14.22,-2.69 21.87,-4.06 4.37,4.74 8.75,10.14 13.13,14.88 3.28,-6.09 7.11,-12.62 10.95,-19.14 11.48,-0.91 23.52,-10.14 34.46,14.64 0,0 0,0 0,-0.24zm175.04 556.71c-9.29,8.79 -15.31,13.96 -21.33,19.37 -10.39,10.13 -19.14,-8.55 -30.62,-10.36 0.54,8.56 0.54,16.67 0.54,23.87 8.74,10.58 17.5,18.69 24.06,29.5 4.93,8.11 7.12,19.59 11.49,31.76 8.76,-1.57 17.5,-3.16 26.26,-4.51 4.92,12.39 8.2,22.3 9.3,27.7 6.02,-7.65 11.49,-15.31 18.05,-22.97 -3.28,-19.59 -5.46,-30.63 -6.01,-39.64 -13.68,-16.43 -27.9,-28.15 -31.74,-54.72zm4183.78 -963.42c-8.2,2.7 -18.04,-4.96 -28.44,8.77 4.92,10.14 -6.02,26.36 6.56,37.61 10.94,-0.22 22.44,-0.44 33.92,-0.67 3.83,-4.72 7.66,-9.69 12.03,-14.64 3.84,4.95 7.66,9.92 12.04,14.87 7.66,-1.13 15.32,-1.58 22.43,-2.94 1.64,-0.22 2.74,-3.38 4.38,-5.61 -12.04,-13.3 -19.15,-36.04 -37.75,-39.2 -4.38,5.41 -8.75,10.82 -13.13,15.99 -4.38,-4.5 -7.66,-9.23 -12.04,-14.18zm-4123.05 1023.55c12.58,-4.28 26.26,0.9 37.75,-12.61 -4.38,-8.33 -10.4,-15.32 -13.13,-24.33 -4.38,-12.61 -0.55,-29.49 -11.49,-38.5 -12.03,4.27 -25.71,-1.12 -37.2,12.61 1.65,13.06 3.83,26.13 4.93,39.18 6.56,7.88 13.12,15.77 19.14,23.65zm4020.21 -610.53c0.54,-21.62 -15.86,-1.13 -19.14,-14.86 -1.64,-8.57 -4.38,-17.58 -6.56,-26.13 -10.4,3.61 -20.25,-4.06 -29.55,9.24 1.1,9.45 1.64,21.39 3.28,33.32 0,1.81 2.74,3.38 3.84,4.97 14.76,-0.46 30.09,-1.13 44.31,-1.81 1.64,0 2.18,-2.7 3.82,-4.73 0,0 0,0 0,0zm337.53 -316.64c2.18,6.99 -4.38,20.27 -3.82,20.27 13.12,-11.93 26.79,-23.65 40.47,-35.36 -4.38,-16.21 1.64,-30.4 -8.75,-38.96 -8.21,2.7 -18.6,-5.18 -26.26,5.86 -6.02,15.31 2.74,23.19 9.3,31.75 -3.84,5.63 -7.66,11.04 -10.94,16.44zm-336.99 -340.96c4.94,-8.78 13.69,-13.74 15.87,-27.48 -8.75,-3.6 -10.39,-20.27 -21.33,-19.14 -25.71,26.8 -27.9,33.12 -16.96,46.85 7.12,0 14.78,0 22.42,-0.23zm194.76 288.94c8.2,0 16.41,-0.23 24.07,-0.45 2.74,-4.05 5.47,-11.03 10.4,-15.09 4.36,-3.6 14.22,4.95 15.3,-15.99 -20.23,0.45 -40.47,0.45 -60.71,1.57 -1.64,0 -3.84,5.63 -5.48,9.01 4.94,6.98 10.4,13.98 16.42,20.95zm-310.72 377.89c8.2,-3.15 18.04,4.51 25.71,-6.07 -1.65,-15.32 -10.39,-7.89 -16.41,-10.6 -10.94,-13.96 -21.88,-28.14 -33.37,-41.65 -0.55,-1.13 -2.19,0.22 -4.38,0.44 -2.18,21.18 -2.18,21.18 28.45,57.88 0,0 0,0 0,0zm396.6 -385.32c-1.64,-10.58 -3.28,-21.18 -4.38,-31.76 -6.56,10.36 -12.58,20.72 -18.59,31.09 3.28,3.82 44.31,37.61 46.49,37.15 2.74,-1.8 5.48,-3.6 8.76,-6.08 -4.92,-21.62 -22.98,-19.14 -32.28,-30.4 0,0 0,0 0,0zm-4550.84 808.48c-30.09,5.19 -30.09,5.19 -40.49,20.73 7.67,0.67 13.14,2.24 17.51,1.12 12.58,-3.37 26.26,1.35 36.66,-11.03 0,-16.9 2.18,-34.47 -10.94,-49.1 -1.1,11.49 -1.64,21.62 -2.74,38.28zm-109.96 6.76c7.12,7.43 12.58,20.27 25.71,22.3 -2.73,-20.27 -6.01,-39.86 -9.29,-59.01 0,-2.7 -4.94,-4.73 -7.12,-6.98 -3.28,12.15 -13.12,18.24 -9.3,43.69 0,0 0,0 0,0zm4425.57 -489.59c-6.02,-6.99 -11.48,-13.29 -16.4,-20.49 -9.85,-0.68 -20.79,-7.89 -30.65,8.1 7.12,2.7 14.23,3.83 19.7,8.33 6.57,4.51 10.39,14.64 19.15,11.71 2.74,-2.48 5.46,-4.95 8.2,-7.65zm41.03 -601.3c5.48,8.11 9.3,18.69 18.6,20.72 4.38,-6.31 8.76,-13.07 13.68,-19.83 -5.47,-7.88 -10.4,-15.75 -15.32,-23.87 -6.02,7.88 -11.48,15.32 -16.96,22.98zm-4249.42 1248.09c-3.28,-11.72 -6.56,-22.98 -9.3,-34.69 -6.56,3.6 -13.68,6.54 -20.24,9.91 3.28,11.27 5.48,19.15 7.12,28.14 7.1,-1.12 14.76,-2.25 22.42,-3.36zm990.14 -1565.18c27.35,5.86 27.35,5.4 35.57,-7.21 -9.86,-7.65 -19.7,-6.98 -35.57,7.21zm3330.4 405.59c6.56,-13.06 15.86,-17.56 17.5,-30.4 -7.11,-6.75 -13.67,-7.43 -21.33,3.38 1.1,6.52 1.64,15.31 3.83,27.02zm-171.22 488.69c-22.98,-12.39 -22.98,-11.93 -31.19,0.91 5.47,1.34 10.94,2.03 16.41,2.25 4.93,-0.45 10.4,-1.8 14.78,-3.16 0,0 0,0 0,0zm100.66 345.02c-12.59,-12.38 -23.53,-11.94 -33.38,1.35 11.49,12.39 22.98,11.71 33.38,-1.35 0,0 0,0 0,0zm-4161.36 461.67c7.11,-16.67 4.92,-26.12 -3.28,-38.73 -4.38,1.79 -8.2,3.6 -11.48,5.41 4.36,10.13 9.84,21.61 14.76,33.32zm3900.41 -1420.36c2.19,-0.24 4.38,-0.46 7.12,-0.68 1.08,-6.98 1.64,-13.74 2.18,-20.72 0,-1.58 -2.74,-5.18 -3.82,-4.96 -2.74,1.13 -7.12,3.61 -7.12,5.63 0,6.98 0.55,13.97 1.64,20.73 0,0 0,0 0,0zm55.81 -6.53c-10.4,-9.69 -17.52,-14.2 -22.44,2.69 6.57,8.34 13.13,7.66 22.44,-2.69 0,0 0,0 0,0zm308.52 68.45c0,3.16 0,6.32 0,9.7 4.92,0.89 10.4,2.25 15.32,2.25 1.09,0 3.83,-3.62 3.83,-4.97 -1.1,-3.82 -2.74,-9.45 -4.38,-9.67 -4.93,0.22 -9.85,1.12 -14.77,2.92 0,0 0,0 0,-0.23zm32.83 50.22c-8.21,-10.8 -15.87,-10.58 -23.53,0.68 7.66,10.58 15.87,10.58 23.53,-0.68 0,0 0,0 0,0zm35.55 239.85c0,3.15 0.55,6.53 0.55,9.91 4.92,0.67 10.39,1.79 15.31,2.25 1.1,0 3.84,-3.82 3.84,-4.95 -1.1,-3.83 -2.74,-9.47 -4.38,-9.69 -4.92,0.22 -9.85,1.13 -15.32,2.48 0,0 0,0 0,0zm-4309.6 1282.54c6.57,-17.56 8.75,-29.73 -3.83,-34.9 -6.01,11.48 -4.37,21.38 3.83,34.9zm115.43 -387.35c-6.02,13.74 -4.92,25.45 4.92,36.03 6.02,-13.52 4.38,-25.45 -4.92,-36.03zm3899.86 -668.18c8.21,10.8 15.87,10.36 22.43,-0.91 -7.66,-10.58 -15.32,-10.35 -22.43,0.91 0,0 0,0 0,0zm274.08 -27.71c0,3.38 0,6.99 0,9.91 4.92,0.91 10.38,2.03 14.76,2.25 1.1,0 3.83,-3.82 3.83,-4.72 -1.09,-3.83 -2.73,-9.68 -4.37,-9.92 -4.94,0.46 -9.86,1.37 -14.22,2.48zm-448.03 -569.77c1.08,2.03 2.72,3.84 4.36,5.41 1.1,-3.15 2.74,-6.76 3.3,-10.36 0.54,-1.35 -1.66,-3.38 -2.74,-5.18 -1.64,3.61 -2.74,6.75 -4.92,10.13zm462.79 -12.61c-2.74,1.81 -4.92,3.6 -7.12,5.41 1.1,1.81 2.74,4.95 3.84,4.73 2.74,-1.13 4.92,-2.7 7.66,-4.95 -1.64,-1.59 -3.28,-3.38 -4.38,-5.19zm-297.04 44.83c1.09,-1.81 2.73,-3.62 4.37,-5.41 -2.19,-2.03 -4.92,-3.6 -7.65,-4.73 -1.1,-0.46 -2.74,3.14 -3.84,4.95 2.2,1.81 4.38,3.38 7.12,5.19zm-2156.45 44.13c-1.64,-3.61 -3.28,-7.21 -4.36,-10.81 -1.1,1.57 -3.84,3.83 -3.84,5.41 1.1,3.82 2.19,7.88 3.84,11.26 1.08,-1.81 2.72,-3.83 4.36,-5.86zm2267.5 -30.4c2.18,-1.58 4.38,-3.38 7.11,-5.41 -1.09,-1.8 -2.73,-5.18 -3.83,-4.72 -2.74,1.12 -5.47,2.69 -7.66,4.95 1.09,1.8 2.74,3.6 4.38,5.18zm4.92 104.26c-1.1,-2.92 -2.19,-6.3 -3.28,-9.67 -1.64,1.57 -3.83,3.82 -3.83,4.95 1.09,3.6 2.19,7.21 3.83,10.35 1.09,-1.57 1.64,-3.6 3.28,-5.63zm-3473.17 224.09c-1.64,-3.61 -3.28,-7.21 -4.38,-11.04 -1.64,2.26 -3.83,5.18 -3.28,6.54 1.09,3.82 2.19,7.65 3.83,11.02 1.1,-2.01 2.19,-4.26 3.83,-6.52zm-217.72 75c-2.2,2.47 -3.84,5.17 -6.02,7.64 1.1,1.81 3.28,5.41 3.82,4.73 2.74,-1.79 4.93,-4.04 7.12,-6.52 -1.1,-1.81 -3.28,-3.84 -4.92,-5.85zm-248.91 107.41c1.64,-2.25 4.38,-4.95 7.11,-7.88 -1.09,-2.03 -3.28,-5.17 -4.37,-4.73 -2.74,1.8 -4.92,4.05 -7.12,6.76 1.1,2.25 2.2,4.28 4.38,5.85zm-572.21 220.7c-2.18,-3.38 -3.82,-7.2 -5.46,-10.8 -1.1,2.25 -2.74,4.73 -2.74,6.3 0.55,4.28 2.74,8.1 4.38,11.48 0.54,-2.25 2.18,-4.27 3.82,-6.98zm335.89 -50.22c-1.09,2.03 -3.28,4.95 -3.28,6.32 1.64,3.82 3.28,7.87 5.47,11.24 0.55,-2.01 3.28,-4.95 2.19,-6.52 -1.1,-3.83 -2.19,-7.88 -4.38,-11.04zm-158.1 47.75c-1.09,2.47 -2.74,4.72 -3.28,6.98 2.74,2.03 5.47,3.6 8.76,4.5 0.54,0.22 1.09,-4.06 2.18,-6.53 -2.73,-1.35 -4.92,-2.92 -7.66,-4.95zm-153.71 89.17c1.08,2.03 2.73,4.06 4.37,5.87 1.09,-4.06 2.19,-8.34 2.73,-12.62 -0.54,-1.8 -2.18,-3.83 -4.37,-5.4 -1.09,4.05 -1.65,8.11 -2.73,12.15zm-40.49 42.8c1.1,2.03 2.74,3.82 4.38,5.63 1.09,-3.83 1.64,-7.89 2.74,-12.61 -0.55,-1.35 -2.74,-3.38 -4.93,-5.19 -1.09,4.06 -1.64,8.11 -2.19,12.17zm4396.03 -322.04c-1.64,-3.38 -2.72,-6.54 -3.82,-9.92 -1.64,1.81 -3.84,4.06 -3.84,5.19 1.1,3.82 2.2,7.2 3.84,10.36 1.1,-1.59 2.18,-3.6 3.82,-5.63 0,0 0,0 0,0zm-27.89 88.95c1.09,3.16 2.73,6.76 4.37,9.91 1.1,-1.8 3.83,-3.83 3.28,-5.18 -1.09,-3.38 -2.73,-6.76 -3.82,-10.14 -1.65,2.03 -2.74,3.6 -3.83,5.41zm-4158.62 431.26c1.65,3.84 3.29,7.44 5.47,11.04 1.1,-2.25 2.74,-5.17 2.74,-6.53 -1.64,-4.05 -3.28,-7.89 -5.47,-11.49 -1.09,2.71 -1.65,4.73 -2.74,6.98zm4354.46 -340.72c1.09,1.79 2.18,3.6 4.37,5.17 1.1,-3.38 2.19,-6.54 3.29,-10.36 0,-1.12 -2.74,-3.15 -4.38,-4.95 -0.55,3.38 -2.19,6.76 -3.28,10.14zm-4065.62 475.4c-2.19,-1.81 -3.28,-3.84 -4.92,-5.63 -1.1,4.05 -1.64,8.11 -1.64,12.61 0.54,1.57 2.73,3.6 4.92,5.19 0,-4.28 1.09,-8.34 1.64,-12.17zm-188.73 59.67c0.55,-2.25 2.19,-4.72 3.28,-7.2 -2.73,-1.8 -6.02,-3.15 -8.75,-4.28 -0.55,-0.44 -1.64,4.06 -2.74,6.09 2.74,1.79 4.93,3.82 8.21,5.39zm4295.92 -372.48c-2.18,-2.03 -3.28,-3.6 -4.92,-5.18 -1.64,3.15 -2.18,6.76 -2.74,10.36 -0.54,1.35 2.74,3.15 3.84,4.72 0.54,-2.92 2.18,-6.52 3.82,-9.9zm-4310.15 404.7c-1.64,-1.81 -3.28,-5.63 -4.37,-5.19 -2.73,1.81 -4.93,4.06 -7.11,6.98 1.64,1.59 3.82,5.63 4.38,4.96 2.18,-2.02 4.92,-4.05 7.1,-6.75zm160.29 85.35c1.64,2.03 3.29,3.82 5.47,5.63 1.1,-3.84 1.64,-8.11 1.64,-12.39 0,-1.58 -2.73,-3.6 -4.38,-5.41 -1.09,4.29 -1.64,8.57 -2.73,12.17z"/>
  <path fill="none" stroke="#373435" stroke-width="52.92" stroke-miterlimit="22.9256" d="M9041.52 5507.15c175.15,0 310.53,-4.14 484.95,25.67 127.91,21.85 273.85,60.66 320.9,127.07 195.53,276.04 -324.58,356.55 -300.22,47.7 27.32,-346.41 518.68,-316.52 770.91,-319.73 132.95,-1.74 88.11,113.56 102.9,132.65l90.04 2556.9c-813.8,0 -2008.51,41.84 -2744.71,34.91 -81.54,-0.77 -58.7,-239.35 -57.3,-282.45l75.64 -2343.79c4.33,-113.45 45.78,-100.75 84.27,-100.75l572.19 0c0,0 187.98,-16.01 267.6,68.27 77.95,82.5 102.57,267.02 3.73,348.86 -104.19,86.24 -293.27,38.67 -281.44,-258.82 10.39,-260.99 32.28,-399.6 32.28,-399.6 0,0 58.93,-707.66 540.06,-770.34 111.9,-14.57 246.65,5.74 408.8,77.96 335.04,149.22 526.63,521.73 529.46,710.86"/>
  <path fill="#373435" d="M5827.25 10139.39c16.75,-132.61 32.81,-256.83 48.16,-372.67 15.34,-115.86 31.75,-230.31 49.2,-343.37 17.45,-113.05 37.68,-227.86 60.71,-344.39 23.03,-116.55 49.9,-242.52 80.6,-377.91 -30.7,0 -76.06,5.23 -136.08,15.7 -60.02,10.47 -122.82,22.33 -188.43,35.59 -65.6,13.27 -128.41,26.88 -188.43,40.82 -60.02,13.96 -104.68,24.43 -133.99,31.41 -51.65,13.96 -101.89,27.57 -150.75,40.83 -48.84,13.25 -98.39,27.56 -148.64,42.92 -18.14,5.58 -40.48,12.56 -67,20.94 -26.52,8.37 -53.04,17.8 -79.57,28.27 -26.51,10.46 -50.59,21.63 -72.22,33.49 -21.64,11.86 -36.64,24.08 -45.01,36.63 5.58,18.15 15.7,32.11 30.35,41.88 14.66,9.77 29.66,20.24 45.02,31.41l244.95 177.96c113.06,85.14 212.16,179 297.3,281.59 85.15,102.59 154.23,220.19 207.27,352.78 26.53,64.21 46.06,118.64 58.63,163.31 12.56,44.65 21.98,83.04 28.27,115.14 6.27,32.11 11.16,60.02 14.65,83.76 3.49,23.71 9.41,47.45 17.8,71.18l4.18 10.47 23.03 -217.74zm2156.67 97.52l31.63 50.61c0,0 27.22,38.52 -16.55,40.47 -43.75,1.94 -69.79,77.8 24.92,56.4 94.72,-21.39 63.59,-49.1 63.59,-72.99 0,-18.18 -43.98,-61.1 -64.96,-80.54 19.37,-4.53 38.38,-11.29 57.06,-20.28 37.69,-18.16 71.19,-41.19 100.5,-69.1 12.56,-11.17 27.57,-25.13 45.01,-41.88 17.45,-16.74 35.25,-34.53 53.39,-53.39 18.15,-18.84 34.9,-37.67 50.25,-56.51 15.35,-18.86 25.82,-35.96 31.41,-51.31 6.97,-13.96 8.36,-25.81 4.18,-35.59 -4.18,-9.77 -11.16,-14.65 -20.94,-14.65 -12.55,0 -26.51,10.47 -41.87,31.4 -19.54,26.52 -41.17,54.44 -64.9,83.74 -23.74,29.33 -49.9,56.19 -78.52,80.61 -28.61,24.43 -58.97,44.68 -91.08,60.72 -32.1,16.06 -66.29,24.08 -102.57,24.08 -25.13,0 -44.33,-5.94 -57.59,-17.8 -13.25,-11.87 -23.37,-27.57 -30.35,-47.1 -12.57,-25.14 -18.14,-54.79 -16.75,-88.98 1.4,-34.2 7.32,-67.35 17.79,-99.45 10.47,-32.1 24.43,-61.77 41.88,-88.98 17.45,-27.22 35.24,-47.12 53.39,-59.67 4.18,36.28 16.75,54.43 37.69,54.43 18.14,0 27.21,-18.15 27.21,-54.43 0,-55.84 -22.33,-83.76 -67,-83.76 -30.7,0 -58.97,10.82 -84.78,32.45 -25.84,21.65 -48.16,48.17 -67,79.57 -18.86,31.41 -33.51,64.21 -43.98,98.4 -10.47,34.2 -15.7,63.85 -15.7,88.98 0,33.5 3.84,65.6 11.52,96.3 7.67,30.71 19.54,57.94 35.59,81.66 16.06,23.73 36.99,42.57 62.81,56.53 25.82,13.96 56.88,20.93 93.17,20.93 7.23,0 14.42,-0.3 21.55,-0.87zm622.44 -15.88c20.94,-5.57 39.79,-24.41 56.53,-56.52 16.76,-32.1 28.62,-67.69 35.59,-106.77 6.98,-39.08 8.74,-76.08 5.25,-110.98 -3.49,-34.88 -14.31,-58.61 -32.45,-71.18 -4.2,15.36 -11.88,37.34 -23.04,65.96 -11.17,28.61 -21.98,59.67 -32.45,93.16 -10.47,33.51 -17.45,67 -20.94,100.49 -3.49,33.51 0.35,62.12 11.51,85.84zm-104.67 -71.18c0,-23.72 5.93,-60.01 17.79,-108.86 11.86,-48.86 27.92,-97.72 48.16,-146.56 20.23,-48.85 42.92,-91.77 68.04,-128.76 25.13,-36.99 50.25,-55.48 75.37,-55.48 13.96,0 23.72,6.28 29.31,18.84 5.59,12.56 6.98,23.03 4.19,31.4 -2.8,6.98 -8.03,13.96 -15.7,20.94 -7.68,6.98 -14.31,14.66 -19.9,23.03 2.8,9.77 9.78,20.24 20.94,31.4 11.17,11.17 21.98,27.22 32.45,48.16 10.47,20.94 17.8,47.8 21.98,80.6 4.2,32.81 0.71,76.43 -10.47,130.86 -15.35,72.58 -39.77,127.02 -73.27,163.3 -33.5,36.29 -66.3,54.43 -98.4,54.43 -27.92,0 -51.64,-13.59 -71.19,-40.82 -19.53,-27.22 -29.3,-68.04 -29.3,-122.48zm-1585.31 -92.11c0,-29.32 7.32,-65.96 21.98,-109.92 14.65,-43.98 34.2,-86.55 58.63,-127.71 24.41,-41.19 53.04,-76.07 85.84,-104.7 32.79,-28.61 67.34,-42.91 103.63,-42.91 25.12,0 46.76,6.28 64.9,18.85 18.14,12.55 32.1,26.16 41.88,40.82 9.77,14.65 14.3,28.26 13.61,40.83 -0.71,12.56 -8.04,18.84 -22,18.84 -15.35,0 -30,-8.02 -43.96,-24.08 -13.96,-16.04 -30.7,-24.08 -50.25,-24.08 -15.34,0 -33.84,9.08 -55.48,27.22 -21.64,18.15 -47.8,53.74 -78.51,106.78 -13.96,22.33 -26.86,51.29 -38.72,86.88 -11.88,35.59 -17.8,70.84 -17.8,105.73 2.78,-2.79 3.84,-3.49 3.13,-2.08 -0.7,1.39 1.75,-1.41 7.33,-8.39l16.75 -25.12c11.16,-16.75 24.08,-38.73 38.73,-65.94 14.66,-27.22 29.31,-53.74 43.96,-79.57 14.67,-25.82 28.62,-48.49 41.88,-68.04 13.26,-19.54 23.39,-29.31 30.37,-29.31 18.14,0 30.35,5.23 36.63,15.7 6.28,10.47 10.12,24.08 11.51,40.83 1.41,16.75 2.1,35.59 2.1,56.53 0,20.94 2.09,41.17 6.29,60.72 8.37,37.67 21.28,65.24 38.72,82.69 17.44,17.45 37.34,26.17 59.67,26.17 39.08,0 82.35,-23.72 129.81,-71.19 19.54,-18.14 33.15,-33.14 40.82,-45 7.68,-11.87 19.19,-25.47 34.55,-40.83 9.77,-13.96 22.33,-20.94 37.68,-20.94 8.38,0 14.67,3.14 18.85,9.42 4.19,6.29 4.88,16.05 2.09,29.31 -2.8,13.27 -10.82,29.67 -24.07,49.2 -13.26,19.55 -33.16,41.88 -59.67,67l-62.82 50.25c-40.47,27.92 -79.55,41.88 -117.24,41.88 -26.52,0 -50.25,-6.29 -71.19,-18.86 -20.93,-12.55 -38.73,-28.26 -53.38,-47.1 -14.66,-18.84 -26.17,-40.12 -34.55,-63.86 -8.37,-23.72 -12.56,-46.75 -12.56,-69.08 -9.77,6.98 -20.94,22.67 -33.49,47.1 -12.57,24.43 -26.18,49.55 -40.83,75.37 -14.66,25.83 -29.66,49.2 -45.02,70.14 -15.35,20.94 -30.7,31.41 -46.05,31.41 -39.08,0 -62.81,-9.08 -71.18,-27.22 -8.39,-18.15 -12.57,-46.06 -12.57,-83.74zm-547.72 203.08c-9.77,0 -16.74,-5.59 -20.94,-16.75 -4.18,-11.17 -6.63,-23.39 -7.32,-36.64 -0.7,-13.26 -0.35,-26.18 1.05,-38.73 1.39,-12.57 2.09,-20.94 2.09,-25.12 -1.39,-25.13 -1.74,-50.6 -1.04,-76.43 0.69,-25.82 0.34,-51.98 -1.05,-78.51 0,-9.77 0.35,-28.61 1.05,-56.53 0.69,-27.92 2.79,-56.53 6.28,-85.84 3.49,-29.31 8.72,-55.47 15.7,-78.51 6.98,-23.02 16.06,-34.55 27.22,-34.55 27.92,0 42.22,9.08 42.92,27.22 0.69,18.15 -0.35,41.88 -3.14,71.19 -1.41,11.16 -2.1,22.33 -2.1,33.5 0,11.17 0,22.33 0,33.5 0,15.35 -0.7,24.77 -2.09,28.26 -1.4,3.49 -2.1,12.21 -2.1,26.17 15.35,-11.17 29.31,-24.08 41.88,-38.74 12.55,-14.65 34.9,-21.98 67,-21.98 9.76,0 22.67,-0.35 38.73,-1.04 16.05,-0.7 33.15,-1.04 51.29,-1.04 30.71,0 59.33,1.73 85.84,5.22 26.53,3.49 39.78,12.21 39.78,26.17 0,15.36 -7.33,24.78 -21.98,28.27 -14.66,3.49 -32.45,5.24 -53.39,5.24 -13.96,0 -28.27,-0.35 -42.92,-1.05 -14.66,-0.7 -27.57,-1.05 -38.74,-1.05 -19.53,0 -35.59,0.35 -48.14,1.05 -12.57,0.7 -23.04,2.78 -31.41,6.27 -8.38,3.49 -15.71,8.74 -21.98,15.72 -6.29,6.97 -13.61,17.44 -22,31.4 -11.16,18.15 -20.92,37.68 -29.3,58.62 -8.37,20.94 -14.66,43.96 -18.84,69.08 -2.8,13.96 -4.19,28.27 -4.19,42.92 0,14.67 -0.69,28.27 -2.1,40.84 -1.39,12.55 -5.22,22.67 -11.51,30.35 -6.28,7.68 -17.79,11.52 -34.55,11.52zm-1584.04 -1247.82c0,-12.56 4.18,-24.43 12.55,-35.59 8.37,-11.17 18.49,-21.98 30.37,-32.45 11.86,-10.47 24.06,-19.54 36.63,-27.23 12.56,-7.67 23.03,-14.3 31.41,-19.88l154.92 -64.9c161.92,-57.22 326.27,-104.69 493.06,-142.37 166.8,-37.69 336.03,-64.91 507.71,-81.65 16.75,-1.4 27.91,-3.84 33.5,-7.33 5.58,-3.49 9.76,-7.32 12.56,-11.52 2.79,-4.19 5.59,-7.68 8.38,-10.47 2.78,-2.78 8.37,-4.19 16.74,-4.19 13.96,0 22.69,1.06 26.18,3.15 3.49,2.1 5.92,4.18 7.33,6.28 1.39,2.1 4.18,4.19 8.37,6.29 4.18,2.08 13.26,3.83 27.22,5.22l33.49 0c22.33,0 46.76,-0.34 73.29,-1.04 26.51,-0.69 51.63,-1.04 75.36,-1.04l37.68 0c13.96,1.39 41.18,4.18 81.66,8.37 40.48,4.18 87.24,9.77 140.28,16.75 53.04,6.98 108.86,15 167.49,24.07 58.62,9.08 112,19.2 160.16,30.36 48.15,11.17 87.93,23.39 119.34,36.64 31.4,13.26 47.1,26.87 47.1,40.83 0,23.72 -7.68,35.59 -23.02,35.59 -9.78,0 -21.99,-1.75 -36.64,-5.24 -14.65,-3.49 -33.16,-8.72 -55.49,-15.7 -41.87,-9.77 -91.42,-19.89 -148.65,-30.36 -57.22,-10.47 -115.84,-19.88 -175.86,-28.27 -60.02,-8.37 -118.29,-15 -174.82,-19.88 -56.53,-4.89 -104.33,-7.32 -143.41,-7.32 -36.3,0 -68.75,1.39 -97.36,4.18 -28.62,2.8 -62.46,4.19 -101.54,4.19 -1.4,4.18 -5.24,21.28 -11.51,51.28 -6.28,30.02 -12.92,62.82 -19.9,98.41 -6.98,35.59 -13.61,69.79 -19.89,102.59 -6.27,32.8 -10.11,54.09 -11.51,63.86l-113.06 638.56c-19.54,117.24 -35.6,229.26 -48.15,336.04 -12.57,106.77 -26.53,216.68 -41.88,329.74 -4.18,30.71 -7.32,59.32 -9.42,85.84 -2.09,26.52 -5.23,55.83 -9.42,87.93l-69.09 680.44c-1.39,11.16 -2.44,24.08 -3.13,38.73 -0.71,14.66 -2.45,29.31 -5.24,43.97 -2.8,14.65 -7.33,26.87 -13.61,36.64 -6.29,9.76 -15.01,14.66 -26.17,14.66 -8.37,0 -14.65,-2.45 -18.84,-7.33 -4.2,-4.89 -9.77,-9.43 -16.75,-13.61l35.59 -594.6c0,-44.67 -2.45,-92.47 -7.33,-143.41 -4.89,-50.95 -11.16,-101.89 -18.84,-152.84 -7.68,-50.95 -16.75,-100.5 -27.22,-148.65 -10.47,-48.16 -21.28,-93.16 -32.45,-135.04 -16.75,-58.63 -34.9,-112 -54.44,-160.16 -19.54,-48.16 -41.17,-93.86 -64.9,-137.14 -23.72,-43.27 -49.55,-85.13 -77.47,-125.62 -27.91,-40.47 -58.62,-81.65 -92.11,-123.53 -22.34,-27.9 -48.16,-55.47 -77.47,-82.7 -29.31,-27.2 -60.37,-53.73 -93.16,-79.55 -32.82,-25.82 -65.27,-50.59 -97.37,-74.33 -32.1,-23.73 -62.1,-46.06 -90.02,-67l-190.52 -136.08c-15.36,-11.16 -29.32,-24.43 -41.87,-39.78 -12.57,-15.35 -18.84,-36.28 -18.84,-62.81z"/>
  <path fill="#373435" fill-rule="nonzero" d="M9308.48 9990.38c0,-34.9 8.03,-74.67 24.08,-119.34 16.05,-44.66 36.28,-89.67 60.71,-135.03 24.42,-45.36 50.94,-88.63 79.55,-129.8 28.62,-41.17 56.18,-75.72 82.7,-103.63 16.75,-19.54 28.61,-33.15 35.59,-40.82 6.98,-7.68 11.16,-14.31 12.56,-19.89 1.4,-5.59 1.74,-10.82 1.05,-15.7 -0.7,-4.89 -0.35,-13.61 1.04,-26.17 2.79,-19.54 8.03,-39.43 15.7,-59.67 7.68,-20.24 16.4,-38.73 26.17,-55.48 19.54,-32.1 45.36,-62.46 77.47,-91.07 32.1,-28.61 65.94,-54.08 101.53,-76.41 35.59,-22.33 70.83,-40.13 105.73,-53.39 34.89,-13.26 64.2,-19.88 87.92,-19.88 33.5,0 50.25,13.25 50.25,39.77 0,13.96 -3.49,25.82 -10.47,35.59 -6.98,9.77 -15.35,20.24 -25.12,31.41l-81.65 73.27c-36.29,30.7 -72.58,60.36 -108.86,88.98 -36.29,28.61 -71.88,58.96 -106.77,91.06 -11.17,11.17 -23.03,24.08 -35.59,38.73 -12.57,14.66 -24.43,25.48 -35.59,32.45 13.95,58.62 35.59,113.4 64.9,164.35 29.31,50.94 64.9,97.35 106.77,139.22 6.97,5.58 11.16,9.77 12.56,12.56 1.39,2.79 4.88,6.98 10.47,12.56l119.33 113.05c8.37,-5.58 25.82,-20.59 52.34,-45.01 26.51,-24.42 54.43,-50.24 83.74,-77.46 29.31,-27.22 55.82,-51.64 79.55,-73.27 23.73,-21.64 37.69,-32.45 41.87,-32.45 12.56,0 18.84,6.28 18.84,18.84 0,8.37 -3.14,15.35 -9.42,20.93 -6.28,5.59 -11.51,11.17 -15.7,16.75l-121.42 125.61c-6.98,6.98 -12.56,11.87 -16.75,14.66 -4.19,2.79 -9.77,7.67 -16.75,14.65 -8.37,6.98 -18.49,16.75 -30.36,29.31 -11.86,12.56 -21.28,23.03 -28.26,31.41 6.98,4.18 18.84,13.25 35.59,27.21 16.75,13.96 34.2,30.01 52.34,48.15 18.14,18.15 35.59,35.59 52.34,52.34 16.75,16.75 28.61,30.01 35.59,39.78l41.87 43.96c1.39,1.4 7.33,6.63 17.79,15.7 10.47,9.08 20.24,18.85 29.31,29.31 9.08,10.47 15.01,20.24 17.8,29.31 2.79,9.08 -2.09,13.61 -14.66,13.61 -5.58,0 -19.88,-8.02 -42.91,-24.07 -23.03,-16.05 -47.81,-34.55 -74.32,-55.48 -26.52,-20.94 -51.99,-41.87 -76.42,-62.81 -24.42,-20.93 -41.52,-36.29 -51.29,-46.06l-75.37 -62.8c-29.31,25.12 -52.69,46.75 -70.13,64.9 -17.45,18.14 -44.31,41.17 -80.6,69.08 -40.48,29.31 -84.79,56.88 -132.94,82.7 -48.15,25.82 -97.35,38.73 -147.6,38.73 -44.66,0 -87.23,-13.26 -127.7,-39.78 -41.87,-27.91 -68.74,-61.76 -80.6,-101.54 -11.87,-39.77 -17.8,-84.09 -17.8,-132.93zm234.48 203.07c26.52,0 53.73,-4.89 81.65,-14.66 27.91,-9.77 55.13,-22.33 81.64,-37.68 26.52,-15.35 51.99,-32.1 76.42,-50.24 24.42,-18.15 45.71,-34.9 63.85,-50.25 8.37,-6.98 21.98,-18.84 40.82,-35.59 18.85,-16.75 31.06,-28.61 36.64,-35.59 -8.37,-11.17 -23.38,-26.87 -45.01,-47.1 -21.63,-20.24 -38.03,-36.64 -49.2,-49.2l-66.99 -75.37c-12.56,-12.56 -27.22,-30.71 -43.97,-54.43 -16.74,-23.73 -32.45,-48.5 -47.1,-74.32 -14.65,-25.82 -27.57,-51.29 -38.73,-76.42 -11.17,-25.12 -17.45,-45.36 -18.84,-60.71 -25.12,29.31 -51.99,62.81 -80.6,100.49 -28.62,37.68 -54.78,77.46 -78.51,119.33 -23.73,41.87 -43.62,84.09 -59.67,126.66 -16.05,42.57 -24.07,84.09 -24.07,124.57 0,53.03 12.21,98.04 36.63,135.03 24.43,36.99 61.07,55.48 109.91,55.48l25.13 0zm213.54 -887.66c23.73,-22.33 49.55,-44.66 77.46,-67 27.91,-22.33 54.43,-43.26 79.55,-62.8l58.62 -52.34c6.98,-4.19 10.47,-6.28 10.47,-6.28 0,0 2.79,-3.49 8.37,-10.47 -26.51,2.79 -57.22,12.91 -92.11,30.36 -34.89,17.44 -68.39,39.08 -100.49,64.9 -32.1,25.82 -60.02,53.73 -83.74,83.74 -23.73,30.01 -36.99,59.66 -39.78,88.97l81.65 -69.08z"/>
  <path fill="#373435" fill-rule="nonzero" d="M10579.23 10397.8c0,-99.09 6.63,-197.49 19.89,-295.19 13.26,-97.7 30.36,-192.26 51.29,-283.67 20.94,-91.42 45.02,-179.35 72.23,-263.79 27.22,-84.44 54.78,-162.25 82.7,-233.43 19.54,-50.24 42.57,-103.28 69.08,-159.11 26.52,-55.83 55.83,-110.26 87.93,-163.29 32.1,-53.04 67,-103.29 104.68,-150.74 37.68,-47.45 77.46,-87.93 119.33,-121.42 39.08,-30.71 82,-56.53 128.75,-77.47 46.76,-20.93 92.47,-31.4 137.13,-31.4 33.5,0 65.6,7.33 96.3,21.98 30.71,14.66 57.92,38.04 81.65,70.14 32.1,46.05 49.9,89.67 53.39,130.84 3.49,41.18 5.23,88.28 5.23,141.32 0,46.05 -7.33,98.39 -21.98,157.01 -14.66,58.62 -32.8,117.94 -54.43,177.95 -21.64,60.02 -45.01,118.64 -70.14,175.86 -25.12,57.22 -48.15,106.77 -69.08,148.64 -6.98,16.75 -13.26,29.66 -18.85,38.73 -5.58,9.07 -18.84,15.7 -39.77,19.89 -18.15,-12.56 -27.22,-23.73 -27.22,-33.5 0,-9.77 5.58,-24.42 16.75,-43.96 5.58,-15.35 11.16,-29.31 16.75,-41.87 5.58,-12.56 11.16,-25.82 16.75,-39.78 41.87,-96.3 80.6,-195.05 116.19,-296.23 35.59,-101.19 53.38,-208.31 53.38,-321.36 0,-71.18 -14.65,-123.17 -43.96,-155.97 -29.31,-32.8 -65.6,-49.2 -108.87,-49.2 -44.66,0 -87.92,12.56 -129.8,37.68 -41.87,25.13 -81.29,57.93 -118.28,98.4 -36.99,40.48 -71.18,86.53 -102.58,138.17 -31.41,51.65 -60.37,103.29 -86.89,154.93 -26.51,51.64 -49.89,101.53 -70.13,149.68 -20.24,48.16 -37.33,88.98 -51.29,122.48 -27.91,71.18 -53.74,148.29 -77.46,231.33 -23.73,83.05 -43.97,166.44 -60.71,250.18 -13.96,69.79 -27.22,144.46 -39.78,224.01 -12.56,79.55 -20.94,160.5 -25.12,242.85 -4.19,82.35 -2.1,163.65 6.28,243.9 8.37,80.25 25.82,155.27 52.33,225.05 19.54,60.02 49.55,111.66 90.03,154.93 40.47,43.26 94.21,64.9 161.2,64.9 60.01,0 118.63,-15.71 175.86,-47.11 57.22,-31.4 106.77,-63.15 148.64,-95.26l71.18 -62.8c13.96,-12.56 26.52,-23.03 37.68,-31.4 11.17,-8.38 23.73,-19.54 37.69,-33.5 114.44,-117.24 213.19,-248.78 296.23,-394.63 83.05,-145.85 162.95,-292.05 239.71,-438.6 12.56,-23.73 24.78,-40.13 36.64,-49.2 11.86,-9.07 22.68,-13.61 32.45,-13.61 9.77,0 17.45,3.49 23.03,10.47 5.58,6.98 8.37,13.96 8.37,20.94l-311.94 569.44c-19.53,29.31 -38.73,57.92 -57.57,85.83 -18.84,27.92 -38.73,55.83 -59.66,83.75 -29.31,40.47 -69.09,88.27 -119.34,143.4 -50.24,55.13 -106.07,107.82 -167.48,158.07 -61.41,50.24 -125.96,92.81 -193.65,127.7 -67.69,34.89 -134.34,52.34 -199.93,52.34 -87.93,0 -159.46,-26.52 -214.59,-79.55 -55.13,-53.04 -97.7,-117.94 -127.71,-194.7 -30.01,-76.77 -50.59,-158.07 -61.76,-243.9 -11.16,-85.84 -16.75,-161.55 -16.75,-227.15z"/>
  <path id="1" fill="#373435" fill-rule="nonzero" d="M12345.35 10213.57c20.93,-5.58 39.77,-24.43 56.52,-56.53 16.75,-32.1 28.61,-67.69 35.59,-106.77 6.98,-39.08 8.73,-76.06 5.24,-110.96 -3.49,-34.89 -14.31,-58.61 -32.45,-71.18 -4.19,15.36 -11.87,37.34 -23.03,65.95 -11.17,28.61 -21.98,59.67 -32.45,93.16 -10.47,33.5 -17.45,67 -20.94,100.49 -3.49,33.5 0.35,62.11 11.52,85.84zm-104.68 -71.18c0,-23.73 5.93,-60.02 17.8,-108.87 11.86,-48.85 27.91,-97.69 48.15,-146.54 20.23,-48.85 42.91,-91.77 68.04,-128.76 25.12,-36.98 50.24,-55.48 75.36,-55.48 13.96,0 23.73,6.29 29.31,18.85 5.59,12.56 6.98,23.03 4.19,31.4 -2.79,6.98 -8.02,13.96 -15.7,20.94 -7.68,6.97 -14.31,14.65 -19.89,23.02 2.79,9.77 9.77,20.24 20.94,31.41 11.16,11.16 21.98,27.21 32.45,48.15 10.46,20.93 17.79,47.8 21.98,80.6 4.18,32.8 0.7,76.41 -10.47,130.85 -15.35,72.57 -39.78,127 -73.27,163.29 -33.5,36.29 -66.3,54.43 -98.4,54.43 -27.91,0 -51.64,-13.6 -71.18,-40.82 -19.54,-27.22 -29.31,-68.04 -29.31,-122.47z"/>
  <path id="2" fill="#373435" fill-rule="nonzero" d="M12895.11 10253.35c-9.77,0 -16.75,-5.59 -20.94,-16.75 -4.18,-11.17 -6.63,-23.38 -7.32,-36.64 -0.7,-13.26 -0.35,-26.17 1.04,-38.73 1.4,-12.56 2.1,-20.94 2.1,-25.12 -1.4,-25.12 -1.75,-50.6 -1.05,-76.42 0.7,-25.82 0.35,-51.99 -1.05,-78.5 0,-9.77 0.35,-28.62 1.05,-56.53 0.7,-27.91 2.79,-56.53 6.28,-85.84 3.49,-29.3 8.72,-55.47 15.7,-78.5 6.98,-23.03 16.05,-34.55 27.22,-34.55 27.91,0 42.22,9.08 42.92,27.22 0.69,18.14 -0.35,41.87 -3.14,71.18 -1.4,11.17 -2.1,22.33 -2.1,33.5 0,11.16 0,22.33 0,33.49 0,15.36 -0.7,24.78 -2.09,28.27 -1.4,3.49 -2.09,12.21 -2.09,26.17 15.35,-11.17 29.3,-24.08 41.87,-38.74 12.56,-14.65 34.89,-21.98 66.99,-21.98 9.77,0 22.68,-0.35 38.73,-1.04 16.05,-0.7 33.15,-1.05 51.29,-1.05 30.71,0 59.32,1.74 85.84,5.23 26.51,3.49 39.77,12.22 39.77,26.17 0,15.35 -7.32,24.78 -21.98,28.27 -14.65,3.48 -32.45,5.23 -53.38,5.23 -13.96,0 -28.27,-0.35 -42.92,-1.05 -14.66,-0.7 -27.57,-1.04 -38.73,-1.04 -19.54,0 -35.59,0.34 -48.15,1.04 -12.56,0.7 -23.03,2.79 -31.41,6.28 -8.37,3.49 -15.7,8.73 -21.98,15.7 -6.28,6.98 -13.61,17.45 -21.98,31.41 -11.17,18.14 -20.94,37.68 -29.31,58.62 -8.37,20.93 -14.65,43.96 -18.84,69.08 -2.79,13.96 -4.19,28.27 -4.19,42.92 0,14.66 -0.7,28.26 -2.09,40.83 -1.4,12.56 -5.24,22.68 -11.52,30.35 -6.28,7.68 -17.79,11.52 -34.54,11.52z"/>
  <polygon fill="#373435" fill-rule="nonzero" points="7147.75,10968.64 6958.32,10968.64 6958.32,10680.53 7147.75,10680.53 7147.75,10714.61 6996.76,10714.61 6996.76,10793.48 7147.75,10793.48 7147.75,10827.56 6996.76,10827.56 6996.76,10934.56 7147.75,10934.56 "/>
  <polygon id="1" fill="#373435" fill-rule="nonzero" points="7530.97,10968.64 7492.53,10968.64 7492.53,10720.42 7412.48,10889.38 7389.69,10889.38 7310.23,10720.42 7310.23,10968.64 7274.57,10968.64 7274.57,10680.53 7326.68,10680.53 7403.43,10840.97 7477.67,10680.53 7530.97,10680.53 "/>
  <path id="2" fill="#373435" fill-rule="nonzero" d="M7891.81 10879.93c0,14.34 -2.71,27.02 -8.13,37.98 -5.41,10.97 -12.75,20.02 -21.93,27.08 -10.83,8.52 -22.72,14.6 -35.73,18.23 -12.95,3.64 -29.46,5.42 -49.47,5.42l-102.31 0 0 -288.11 85.47 0c21.07,0 36.79,0.79 47.29,2.31 10.43,1.59 20.47,4.76 29.98,9.64 10.64,5.55 18.3,12.69 23.06,21.41 4.82,8.65 7.2,19.08 7.2,31.17 0,13.61 -3.51,25.23 -10.44,34.88 -7,9.57 -16.31,17.3 -27.94,23.11l0 1.59c19.49,3.96 34.87,12.55 46.1,25.63 11.23,13.14 16.85,29.65 16.85,49.66zm-64.6 -129.52c0,-6.87 -1.19,-12.68 -3.5,-17.44 -2.31,-4.69 -6.01,-8.52 -11.23,-11.49 -6.01,-3.43 -13.41,-5.61 -22.06,-6.41 -8.59,-0.85 -19.29,-1.25 -32.1,-1.25l-45.64 0 0 82.43 49.54 0c11.95,0 21.53,-0.59 28.6,-1.85 7.13,-1.19 13.67,-3.7 19.74,-7.53 6.08,-3.83 10.37,-8.78 12.88,-14.86 2.51,-6.08 3.77,-13.28 3.77,-21.6zm24.57 130.85c0,-11.5 -1.72,-20.68 -5.22,-27.48 -3.5,-6.8 -9.77,-12.62 -18.95,-17.31 -6.21,-3.23 -13.74,-5.35 -22.53,-6.27 -8.85,-0.99 -19.61,-1.45 -32.23,-1.45l-60.17 0 0 106.6 50.66 0c16.78,0 30.51,-0.86 41.21,-2.58 10.7,-1.78 19.49,-4.95 26.36,-9.57 7.2,-4.96 12.48,-10.7 15.85,-17.11 3.37,-6.41 5.02,-14.66 5.02,-24.83z"/>
  <path id="3" fill="#373435" fill-rule="nonzero" d="M8238.64 10968.64l-40.89 0 -28.13 -80.05 -124.84 0 -28.14 80.05 -38.77 0 104.82 -288.11 51.13 0 104.82 288.11zm-81.11 -113.34l-50.33 -141.08 -50.53 141.08 100.86 0z"/>
  <polygon id="4" fill="#373435" fill-rule="nonzero" points="8530.46,10968.64 8348.16,10968.64 8348.16,10680.53 8386.6,10680.53 8386.6,10934.56 8530.46,10934.56 "/>
  <path id="5" fill="#373435" fill-rule="nonzero" d="M8861.51 10968.64l-40.89 0 -28.13 -80.05 -124.84 0 -28.14 80.05 -38.77 0 104.82 -288.11 51.13 0 104.82 288.11zm-81.11 -113.34l-50.33 -141.08 -50.53 141.08 100.86 0z"/>
  <path id="6" fill="#373435" fill-rule="nonzero" d="M9211.19 10947.7c-15.72,7.2 -32.96,13.48 -51.59,18.83 -18.63,5.35 -36.66,8.05 -54.09,8.05 -22.46,0 -43,-3.1 -61.7,-9.31 -18.75,-6.21 -34.67,-15.45 -47.82,-27.87 -13.27,-12.55 -23.58,-28.21 -30.77,-46.96 -7.2,-18.76 -10.84,-40.76 -10.84,-65.92 0,-46.1 13.48,-82.5 40.36,-109.18 26.95,-26.62 63.87,-39.96 110.9,-39.96 16.38,0 33.15,1.98 50.26,5.88 17.11,3.96 35.54,10.63 55.29,20.01l0 45.44 -3.51 0c-3.96,-3.04 -9.77,-7.07 -17.37,-11.95 -7.66,-4.96 -15.12,-9.12 -22.45,-12.42 -8.92,-3.9 -19.03,-7.2 -30.32,-9.78 -11.3,-2.57 -24.11,-3.89 -38.44,-3.89 -32.23,0 -57.73,10.3 -76.55,30.97 -18.76,20.68 -28.14,48.62 -28.14,83.89 0,37.18 9.77,66.11 29.39,86.79 19.55,20.67 46.24,30.98 79.99,30.98 12.35,0 24.7,-1.19 36.99,-3.64 12.28,-2.44 23.11,-5.61 32.36,-9.44l0 -70.15 -77.28 0 0 -34.08 115.33 0 0 123.71z"/>
  <polygon id="7" fill="#373435" fill-rule="nonzero" points="9533.38,10968.64 9343.95,10968.64 9343.95,10680.53 9533.38,10680.53 9533.38,10714.61 9382.39,10714.61 9382.39,10793.48 9533.38,10793.48 9533.38,10827.56 9382.39,10827.56 9382.39,10934.56 9533.38,10934.56 "/>
  <polygon id="8" fill="#373435" fill-rule="nonzero" points="9879.75,10968.64 9832.46,10968.64 9695.86,10710.91 9695.86,10968.64 9660.2,10968.64 9660.2,10680.53 9719.44,10680.53 9844.08,10915.8 9844.08,10680.53 9879.75,10680.53 "/>
  <path id="9" fill="#373435" fill-rule="nonzero" d="M10231.14 10886.41c0,11.16 -2.64,22.26 -7.86,33.22 -5.22,10.97 -12.49,20.28 -21.93,27.87 -10.3,8.26 -22.33,14.67 -36.06,19.36 -13.68,4.62 -30.26,6.93 -49.54,6.93 -20.74,0 -39.43,-1.91 -56.01,-5.81 -16.51,-3.83 -33.36,-9.58 -50.53,-17.17l0 -47.96 2.71 0c14.53,12.03 31.31,21.34 50.39,27.88 19.03,6.54 36.93,9.77 53.7,9.77 23.65,0 42.14,-4.42 55.29,-13.27 13.21,-8.85 19.81,-20.68 19.81,-35.47 0,-12.75 -3.1,-22.13 -9.38,-28.21 -6.21,-6.07 -15.72,-10.76 -28.47,-14.13 -9.7,-2.58 -20.14,-4.69 -31.44,-6.34 -11.29,-1.72 -23.24,-3.83 -35.86,-6.41 -25.5,-5.41 -44.39,-14.66 -56.74,-27.74 -12.28,-13.08 -18.43,-30.12 -18.43,-51.19 0,-24.11 10.18,-43.85 30.59,-59.24 20.41,-15.39 46.23,-23.12 77.6,-23.12 20.28,0 38.84,1.91 55.75,5.81 16.91,3.83 31.9,8.65 44.91,14.33l0 45.25 -2.7 0c-10.97,-9.25 -25.37,-16.91 -43.2,-22.99 -17.9,-6.07 -36.13,-9.11 -54.82,-9.11 -20.54,0 -36.99,4.22 -49.41,12.68 -12.48,8.52 -18.69,19.42 -18.69,32.76 0,11.95 3.11,21.4 9.25,28.2 6.21,6.87 17.1,12.09 32.69,15.66 8.26,1.85 19.95,4.03 35.14,6.6 15.26,2.58 28.14,5.22 38.71,7.93 21.4,5.68 37.45,14.26 48.28,25.69 10.83,11.49 16.25,27.54 16.25,48.22z"/>
 </g>
</svg>
