<?xml version="1.0" encoding="iso-8859-1"?>
<!-- Generator: Adobe Illustrator 19.0.0, SVG Export Plug-In . SVG Version: 6.00 Build 0)  -->
<svg version="1.1" id="Layer_1" xmlns="http://www.w3.org/2000/svg" xmlns:xlink="http://www.w3.org/1999/xlink" x="0px" y="0px"
	 viewBox="0 0 496 496" style="enable-background:new 0 0 496 496;" xml:space="preserve">
<g>
	<g>
		<g>
			<path d="M448,0H48v232h400V0z M296,216H64V16h232V216z M432,216H312V16h56v112h16V16h48V216z"/>
			<path d="M200,464h80v-80h-80V464z M216,400h48v48h-48V400z"/>
			<path d="M280,137.392l13.2-11.32l-10.408-12.144l-7.08,6.072H200v80h80V137.392z M264,184h-48v-48h41.04l-22.472,19.256
				l-3.416-6.832l-14.312,7.16l12.584,25.168L264,151.104V184z"/>
			<path d="M445.416,272H360H50.584l-38.4,96H48v128h400V368h35.816L445.416,272z M35.816,352l25.6-64h238.776l-25.6,64H35.816z
				 M304,480H64V368h221.416L304,321.536V480z M432,480H320V321.536L338.584,368H432V480z M349.416,352l-25.6-64H360h74.584l25.6,64
				H349.416z"/>
		</g>
	</g>
</g>
<g>
</g>
<g>
</g>
<g>
</g>
<g>
</g>
<g>
</g>
<g>
</g>
<g>
</g>
<g>
</g>
<g>
</g>
<g>
</g>
<g>
</g>
<g>
</g>
<g>
</g>
<g>
</g>
<g>
</g>
</svg>
